<svg xmlns="http://www.w3.org/2000/svg" viewBox="0 0 1200 720" role="img">
<style>
  .title { font: 700 28px Arial, sans-serif; fill: #0f172a; }
  .subtitle { font: 400 17px Arial, sans-serif; fill: #475569; }
  .axis { font: 12px Arial, sans-serif; fill: #475569; }
  .label { font: 700 13px Arial, sans-serif; fill: #334155; }
  .legend { font: 13px Arial, sans-serif; fill: #334155; }
  .note { font: 12px Arial, sans-serif; fill: #64748b; }
</style>
<rect width="1200" height="720" fill="#ffffff"/>
<text x="92" y="44" class="title">BDC Names to Compare, Not Worship</text>
<text x="92" y="74" class="subtitle">Representative publicly traded BDCs, normalized to 100 from 2024. Dispersion is the signal.</text>
<rect x="92" y="112" width="1020" height="512" fill="#f8fafc" stroke="#cbd5e1"/>
<line x1="92" y1="624.0" x2="1112" y2="624.0" stroke="#e2e8f0" stroke-width="1"/>
<text x="82" y="628.0" text-anchor="end" class="axis">50</text>
<line x1="92" y1="521.6" x2="1112" y2="521.6" stroke="#e2e8f0" stroke-width="1"/>
<text x="82" y="525.6" text-anchor="end" class="axis">80</text>
<line x1="92" y1="419.2" x2="1112" y2="419.2" stroke="#e2e8f0" stroke-width="1"/>
<text x="82" y="423.2" text-anchor="end" class="axis">110</text>
<line x1="92" y1="316.8" x2="1112" y2="316.8" stroke="#e2e8f0" stroke-width="1"/>
<text x="82" y="320.8" text-anchor="end" class="axis">140</text>
<line x1="92" y1="214.4" x2="1112" y2="214.4" stroke="#e2e8f0" stroke-width="1"/>
<text x="82" y="218.4" text-anchor="end" class="axis">170</text>
<line x1="92" y1="112.0" x2="1112" y2="112.0" stroke="#e2e8f0" stroke-width="1"/>
<text x="82" y="116.0" text-anchor="end" class="axis">200</text>
<line x1="507.3" y1="112" x2="507.3" y2="624" stroke="#e2e8f0" stroke-width="1"/>
<text x="507.3" y="648" text-anchor="middle" class="axis">2025</text>
<line x1="926.1" y1="112" x2="926.1" y2="624" stroke="#e2e8f0" stroke-width="1"/>
<text x="926.1" y="648" text-anchor="middle" class="axis">2026</text>
<polyline points="92.0,453.3 100.0,453.5 108.1,454.2 116.1,450.8 124.1,457.3 132.2,459.0 140.2,457.7 148.2,458.4 156.3,456.3 164.3,451.7 172.3,449.0 180.3,452.5 187.2,438.2 196.4,442.5 204.4,447.5 212.5,442.2 220.5,438.9 228.5,441.8 236.6,433.5 244.6,430.4 252.6,429.2 260.7,425.4 268.7,426.1 276.7,432.5 284.8,434.2 292.8,429.7 300.8,425.1 308.9,423.5 316.9,431.9 324.9,427.7 332.9,439.3 341.0,435.6 349.0,431.4 357.0,428.3 365.1,425.5 373.1,435.3 381.1,429.4 389.2,425.1 397.2,419.7 405.2,417.2 413.3,412.4 421.3,406.5 429.3,407.7 437.4,418.1 445.4,408.6 453.4,409.0 461.4,399.8 469.5,397.5 477.5,396.4 485.5,397.1 493.6,402.8 501.6,391.1 509.6,388.1 517.7,391.8 525.7,369.8 533.7,365.2 541.8,360.8 549.8,377.9 557.8,368.1 565.9,368.0 573.9,366.1 581.9,372.9 590.0,395.7 598.0,386.7 606.0,380.1 614.0,420.3 622.1,421.4 629.0,412.2 638.1,398.9 646.2,404.7 654.2,399.8 662.2,383.9 670.3,389.9 678.3,381.3 686.3,378.6 694.4,382.1 702.4,382.9 710.4,374.1 717.3,365.3 726.5,357.0 734.5,349.9 742.6,351.8 750.6,365.6 758.6,362.4 766.6,365.3 774.7,367.0 782.7,365.4 790.7,364.7 798.8,367.4 806.8,372.5 814.8,394.0 822.9,400.1 830.9,424.5 838.9,412.6 847.0,401.4 855.0,396.1 863.0,399.1 871.1,398.9 879.1,406.1 887.1,390.9 895.1,383.0 903.2,386.4 911.2,395.0 919.2,389.8 927.3,385.0 935.3,380.9 943.3,375.7 951.4,378.1 959.4,396.0 967.4,407.6 975.5,406.4 983.5,410.8 991.5,421.4 999.6,419.0 1007.6,426.9 1015.6,424.8 1023.7,435.3 1030.5,422.2 1039.7,422.2 1047.7,401.6 1055.8,410.2 1063.8,398.3 1071.8,403.2 1079.9,405.5 1087.9,411.9 1095.9,403.6 1104.0,407.7 1112.0,398.1" fill="none" stroke="#0f766e" stroke-width="2.5" stroke-linejoin="round" stroke-linecap="round"/>
<polyline points="92.0,453.3 100.0,455.1 108.1,455.6 116.1,451.2 124.1,451.3 132.2,453.9 140.2,442.2 148.2,437.4 156.3,438.8 164.3,429.9 172.3,429.9 180.3,423.4 187.2,411.4 196.4,414.5 204.4,419.5 212.5,409.4 220.5,399.9 228.5,398.1 236.6,405.6 244.6,417.9 252.6,414.4 260.7,407.5 268.7,407.8 276.7,409.2 284.8,403.2 292.8,408.6 300.8,397.9 308.9,409.9 316.9,413.3 324.9,407.0 332.9,423.2 341.0,417.7 349.0,415.5 357.0,422.3 365.1,414.5 373.1,417.4 381.1,413.1 389.2,411.4 397.2,413.9 405.2,408.8 413.3,409.8 421.3,395.0 429.3,389.4 437.4,398.9 445.4,388.1 453.4,395.4 461.4,383.6 469.5,373.1 477.5,379.7 485.5,381.7 493.6,377.5 501.6,364.2 509.6,368.3 517.7,376.7 525.7,363.0 533.7,361.5 541.8,350.0 549.8,354.3 557.8,345.9 565.9,340.8 573.9,348.1 581.9,353.9 590.0,371.7 598.0,357.5 606.0,358.5 614.0,398.6 622.1,418.4 629.0,402.7 638.1,392.6 646.2,392.5 654.2,390.9 662.2,365.5 670.3,370.3 678.3,362.3 686.3,361.0 694.4,365.6 702.4,371.1 710.4,369.6 717.3,360.8 726.5,353.9 734.5,344.4 742.6,343.4 750.6,361.0 758.6,370.0 766.6,380.3 774.7,377.8 782.7,377.9 790.7,387.7 798.8,397.1 806.8,409.3 814.8,419.4 822.9,416.7 830.9,436.5 838.9,423.0 847.0,411.0 855.0,416.1 863.0,415.4 871.1,413.0 879.1,414.6 887.1,399.7 895.1,389.4 903.2,391.4 911.2,402.8 919.2,404.7 927.3,403.0 935.3,407.5 943.3,404.1 951.4,410.0 959.4,416.6 967.4,427.9 975.5,431.9 983.5,445.3 991.5,442.8 999.6,443.7 1007.6,446.2 1015.6,444.6 1023.7,448.3 1030.5,432.7 1039.7,442.5 1047.7,419.0 1055.8,438.4 1063.8,414.9 1071.8,426.5 1079.9,428.9 1087.9,439.4 1095.9,433.3 1104.0,435.8 1112.0,431.5" fill="none" stroke="#2563eb" stroke-width="2.5" stroke-linejoin="round" stroke-linecap="round"/>
<polyline points="92.0,453.3 100.0,450.1 108.1,451.1 116.1,450.1 124.1,457.7 132.2,458.4 140.2,453.1 148.2,450.6 156.3,449.4 164.3,446.7 172.3,445.5 180.3,441.4 187.2,433.3 196.4,431.1 204.4,432.1 212.5,429.5 220.5,420.3 228.5,418.2 236.6,405.8 244.6,408.4 252.6,404.6 260.7,397.3 268.7,409.8 276.7,420.6 284.8,425.1 292.8,423.8 300.8,418.0 308.9,416.4 316.9,425.5 324.9,420.7 332.9,433.0 341.0,444.6 349.0,444.4 357.0,434.7 365.1,427.2 373.1,439.1 381.1,435.9 389.2,432.3 397.2,431.1 405.2,426.6 413.3,425.6 421.3,419.4 429.3,418.2 437.4,427.4 445.4,427.4 453.4,424.9 461.4,416.4 469.5,415.2 477.5,412.4 485.5,413.4 493.6,415.9 501.6,408.9 509.6,404.9 517.7,423.0 525.7,415.6 533.7,414.6 541.8,408.7 549.8,411.5 557.8,401.5 565.9,400.5 573.9,398.4 581.9,410.5 590.0,425.6 598.0,410.8 606.0,409.2 614.0,445.2 622.1,445.7 629.0,430.8 638.1,420.0 646.2,425.0 654.2,429.7 662.2,408.2 670.3,418.1 678.3,409.5 686.3,411.6 694.4,411.1 702.4,414.2 710.4,412.4 717.3,400.0 726.5,399.4 734.5,387.5 742.6,394.0 750.6,414.8 758.6,412.4 766.6,413.4 774.7,409.9 782.7,407.2 790.7,407.2 798.8,412.4 806.8,416.2 814.8,437.0 822.9,442.8 830.9,457.5 838.9,444.4 847.0,432.5 855.0,432.8 863.0,457.2 871.1,463.9 879.1,451.7 887.1,428.6 895.1,420.0 903.2,431.9 911.2,443.0 919.2,440.8 927.3,435.1 935.3,435.1 943.3,433.7 951.4,437.4 959.4,451.2 967.4,466.6 975.5,466.3 983.5,466.3 991.5,471.5 999.6,466.3 1007.6,481.2 1015.6,475.5 1023.7,484.6 1030.5,472.9 1039.7,472.6 1047.7,445.3 1055.8,460.7 1063.8,443.2 1071.8,458.3 1079.9,462.5 1087.9,467.8 1095.9,461.0 1104.0,468.1 1112.0,463.4" fill="none" stroke="#7c3aed" stroke-width="2.5" stroke-linejoin="round" stroke-linecap="round"/>
<polyline points="92.0,453.3 100.0,457.0 108.1,455.0 116.1,454.0 124.1,457.9 132.2,465.0 140.2,461.1 148.2,460.6 156.3,479.6 164.3,477.6 172.3,478.0 180.3,475.6 187.2,467.9 196.4,466.0 204.4,468.9 212.5,462.4 220.5,463.5 228.5,465.3 236.6,454.2 244.6,450.6 252.6,449.2 260.7,442.5 268.7,440.5 276.7,447.3 284.8,449.6 292.8,443.8 300.8,436.1 308.9,433.1 316.9,435.9 324.9,434.3 332.9,448.4 341.0,453.9 349.0,444.5 357.0,440.6 365.1,434.9 373.1,438.8 381.1,430.8 389.2,431.1 397.2,429.5 405.2,422.8 413.3,422.8 421.3,416.4 429.3,413.6 437.4,423.4 445.4,406.2 453.4,404.6 461.4,393.3 469.5,385.0 477.5,384.5 485.5,385.7 493.6,389.3 501.6,381.7 509.6,375.8 517.7,390.2 525.7,370.8 533.7,363.4 541.8,349.3 549.8,352.3 557.8,342.8 565.9,343.2 573.9,347.6 581.9,359.0 590.0,386.4 598.0,386.3 606.0,381.4 614.0,412.5 622.1,426.1 629.0,409.5 638.1,397.5 646.2,401.3 654.2,402.6 662.2,377.8 670.3,382.6 678.3,377.0 686.3,375.3 694.4,377.8 702.4,374.9 710.4,374.2 717.3,359.0 726.5,351.0 734.5,339.0 742.6,341.9 750.6,377.1 758.6,430.3 766.6,438.4 774.7,426.4 782.7,423.1 790.7,425.4 798.8,437.4 806.8,457.7 814.8,472.3 822.9,476.8 830.9,493.8 838.9,479.3 847.0,471.5 855.0,474.0 863.0,471.0 871.1,463.4 879.1,462.8 887.1,452.6 895.1,450.9 903.2,452.3 911.2,468.1 919.2,467.2 927.3,462.7 935.3,470.7 943.3,472.1 951.4,473.0 959.4,488.1 967.4,508.8 975.5,498.5 983.5,506.3 991.5,554.6 999.6,557.0 1007.6,570.3 1015.6,562.1 1023.7,563.5 1030.5,549.5 1039.7,558.4 1047.7,529.0 1055.8,549.3 1063.8,525.3 1071.8,541.8 1079.9,538.6 1087.9,543.2 1095.9,541.1 1104.0,545.1 1112.0,536.7" fill="none" stroke="#af4c23" stroke-width="2.5" stroke-linejoin="round" stroke-linecap="round"/>
<polyline points="92.0,453.3 100.0,453.0 108.1,450.1 116.1,437.0 124.1,440.8 132.2,445.3 140.2,442.5 148.2,438.8 156.3,438.1 164.3,433.0 172.3,430.2 180.3,429.4 187.2,419.0 196.4,417.0 204.4,420.1 212.5,414.6 220.5,402.6 228.5,392.7 236.6,398.6 244.6,403.8 252.6,405.4 260.7,401.8 268.7,401.8 276.7,397.1 284.8,395.9 292.8,385.3 300.8,371.1 308.9,375.4 316.9,386.2 324.9,379.3 332.9,393.0 341.0,397.1 349.0,391.3 357.0,387.9 365.1,390.3 373.1,394.6 381.1,383.7 389.2,380.9 397.2,379.0 405.2,372.4 413.3,368.7 421.3,359.3 429.3,364.9 437.4,373.3 445.4,361.3 453.4,358.8 461.4,343.7 469.5,331.2 477.5,330.6 485.5,327.8 493.6,318.8 501.6,306.1 509.6,289.7 517.7,305.5 525.7,285.9 533.7,276.3 541.8,269.6 549.8,275.5 557.8,271.6 565.9,264.8 573.9,277.3 581.9,293.5 590.0,313.8 598.0,300.3 606.0,307.9 614.0,352.4 622.1,347.3 629.0,334.5 638.1,327.1 646.2,329.9 654.2,335.4 662.2,315.1 670.3,312.9 678.3,301.3 686.3,293.9 694.4,291.4 702.4,286.0 710.4,278.3 717.3,259.3 726.5,240.9 734.5,228.3 742.6,215.7 750.6,231.9 758.6,215.2 766.6,211.0 774.7,219.9 782.7,209.3 790.7,207.3 798.8,201.0 806.8,208.9 814.8,227.0 822.9,234.1 830.9,302.0 838.9,274.8 847.0,281.0 855.0,285.7 863.0,267.5 871.1,270.0 879.1,295.7 887.1,273.4 895.1,249.2 903.2,235.0 911.2,251.9 919.2,243.8 927.3,234.9 935.3,237.6 943.3,212.4 951.4,211.6 959.4,213.9 967.4,243.3 975.5,251.2 983.5,264.9 991.5,275.3 999.6,267.8 1007.6,290.6 1015.6,286.7 1023.7,318.9 1030.5,308.7 1039.7,302.2 1047.7,286.0 1055.8,293.1 1063.8,273.2 1071.8,291.2 1079.9,324.4 1087.9,332.1 1095.9,317.3 1104.0,311.7 1112.0,307.3" fill="none" stroke="#334155" stroke-width="2.5" stroke-linejoin="round" stroke-linecap="round"/>
<polyline points="92.0,453.3 100.0,446.2 108.1,458.1 116.1,446.6 124.1,452.1 132.2,451.9 140.2,426.0 148.2,425.4 156.3,427.7 164.3,426.3 172.3,427.1 180.3,422.4 187.2,419.4 196.4,420.2 204.4,425.1 212.5,419.2 220.5,406.7 228.5,399.4 236.6,389.9 244.6,391.1 252.6,390.1 260.7,383.2 268.7,382.1 276.7,386.7 284.8,381.5 292.8,368.4 300.8,352.3 308.9,352.3 316.9,353.2 324.9,348.0 332.9,402.6 341.0,405.9 349.0,400.9 357.0,399.7 365.1,384.5 373.1,397.7 381.1,380.0 389.2,375.7 397.2,372.1 405.2,365.9 413.3,374.6 421.3,362.9 429.3,368.9 437.4,383.2 445.4,373.8 453.4,381.5 461.4,385.0 469.5,381.3 477.5,368.6 485.5,370.8 493.6,375.1 501.6,356.1 509.6,355.3 517.7,363.8 525.7,341.5 533.7,334.3 541.8,332.8 549.8,339.1 557.8,330.2 565.9,325.8 573.9,327.7 581.9,372.6 590.0,381.3 598.0,365.0 606.0,364.5 614.0,410.8 622.1,418.8 629.0,402.9 638.1,394.7 646.2,400.5 654.2,404.3 662.2,386.4 670.3,395.5 678.3,390.3 686.3,378.6 694.4,382.2 702.4,381.5 710.4,378.6 717.3,367.8 726.5,360.2 734.5,351.3 742.6,348.7 750.6,355.4 758.6,347.6 766.6,346.6 774.7,342.6 782.7,335.8 790.7,342.6 798.8,337.7 806.8,335.8 814.8,345.4 822.9,362.1 830.9,402.1 838.9,388.7 847.0,380.5 855.0,373.4 863.0,371.5 871.1,370.6 879.1,372.7 887.1,360.2 895.1,336.5 903.2,340.2 911.2,347.9 919.2,343.5 927.3,339.4 935.3,346.0 943.3,338.2 951.4,345.2 959.4,347.4 967.4,397.6 975.5,418.6 983.5,422.2 991.5,440.6 999.6,424.4 1007.6,444.9 1015.6,441.6 1023.7,448.6 1030.5,423.4 1039.7,422.2 1047.7,397.0 1055.8,408.2 1063.8,388.6 1071.8,392.3 1079.9,395.9 1087.9,400.8 1095.9,398.0 1104.0,402.4 1112.0,396.7" fill="none" stroke="#be123c" stroke-width="2.5" stroke-linejoin="round" stroke-linecap="round"/>
<polyline points="92.0,453.3 100.0,454.4 108.1,450.9 116.1,446.2 124.1,453.6 132.2,452.0 140.2,439.7 148.2,437.7 156.3,438.3 164.3,433.5 172.3,427.5 180.3,428.9 187.2,412.3 196.4,412.6 204.4,414.4 212.5,408.4 220.5,394.6 228.5,397.4 236.6,401.2 244.6,407.8 252.6,411.1 260.7,403.6 268.7,415.8 276.7,423.6 284.8,427.2 292.8,422.7 300.8,421.3 308.9,419.6 316.9,428.4 324.9,428.8 332.9,445.9 341.0,453.7 349.0,445.9 357.0,437.3 365.1,430.3 373.1,433.4 381.1,425.4 389.2,430.3 397.2,428.5 405.2,423.4 413.3,425.4 421.3,416.8 429.3,420.7 437.4,425.6 445.4,418.3 453.4,417.8 461.4,420.2 469.5,408.9 477.5,414.1 485.5,414.6 493.6,413.8 501.6,409.6 509.6,408.0 517.7,418.4 525.7,405.8 533.7,401.2 541.8,397.4 549.8,402.0 557.8,392.4 565.9,394.9 573.9,398.9 581.9,405.4 590.0,414.7 598.0,403.1 606.0,399.7 614.0,434.9 622.1,440.4 629.0,428.7 638.1,420.7 646.2,423.6 654.2,420.2 662.2,405.2 670.3,407.5 678.3,400.8 686.3,403.1 694.4,404.2 702.4,406.3 710.4,410.9 717.3,402.1 726.5,390.7 734.5,384.3 742.6,386.4 750.6,403.4 758.6,400.0 766.6,402.9 774.7,401.8 782.7,398.1 790.7,402.6 798.8,402.4 806.8,403.4 814.8,418.2 822.9,417.1 830.9,430.7 838.9,414.6 847.0,407.0 855.0,410.0 863.0,415.7 871.1,416.6 879.1,420.1 887.1,410.0 895.1,405.1 903.2,408.4 911.2,416.8 919.2,414.3 927.3,413.8 935.3,410.4 943.3,406.7 951.4,410.7 959.4,418.8 967.4,442.4 975.5,440.1 983.5,453.6 991.5,458.1 999.6,454.5 1007.6,449.3 1015.6,438.3 1023.7,440.9 1030.5,428.2 1039.7,427.9 1047.7,401.4 1055.8,411.2 1063.8,396.5 1071.8,414.9 1079.9,417.8 1087.9,422.7 1095.9,414.9 1104.0,418.4 1112.0,411.2" fill="none" stroke="#64748b" stroke-width="2.5" stroke-linejoin="round" stroke-linecap="round"/>
<text x="20" y="368.0" transform="rotate(-90 20 368.0)" class="label" text-anchor="middle">Normalized adjusted close</text>
<line x1="92" y1="666" x2="120" y2="666" stroke="#0f766e" stroke-width="3"/>
<text x="128" y="670" class="legend">ARCC</text>
<line x1="214" y1="666" x2="242" y2="666" stroke="#2563eb" stroke-width="3"/>
<text x="250" y="670" class="legend">BXSL</text>
<line x1="336" y1="666" x2="364" y2="666" stroke="#7c3aed" stroke-width="3"/>
<text x="372" y="670" class="legend">OBDC</text>
<line x1="458" y1="666" x2="486" y2="666" stroke="#af4c23" stroke-width="3"/>
<text x="494" y="670" class="legend">FSK</text>
<line x1="580" y1="666" x2="608" y2="666" stroke="#334155" stroke-width="3"/>
<text x="616" y="670" class="legend">MAIN</text>
<line x1="702" y1="666" x2="730" y2="666" stroke="#be123c" stroke-width="3"/>
<text x="738" y="670" class="legend">HTGC</text>
<line x1="824" y1="666" x2="852" y2="666" stroke="#64748b" stroke-width="3"/>
<text x="860" y="670" class="legend">GBDC</text>
<text x="92" y="698" class="note">Source: Yahoo Finance chart endpoint for ARCC, BXSL, OBDC, FSK, MAIN, HTGC, and GBDC.</text>
</svg>