<svg xmlns="http://www.w3.org/2000/svg" viewBox="0 0 1200 720" role="img">
<style>
  .title { font: 700 28px Arial, sans-serif; fill: #0f172a; }
  .subtitle { font: 400 17px Arial, sans-serif; fill: #475569; }
  .axis { font: 12px Arial, sans-serif; fill: #475569; }
  .label { font: 700 13px Arial, sans-serif; fill: #334155; }
  .legend { font: 13px Arial, sans-serif; fill: #334155; }
  .note { font: 12px Arial, sans-serif; fill: #64748b; }
</style>
<rect width="1200" height="720" fill="#ffffff"/>
<text x="92" y="44" class="title">Public Proxies for the Private-Credit Stress Channel</text>
<text x="92" y="74" class="subtitle">Adjusted close proxies, normalized to 100. Public prices are noisy but update faster than private marks.</text>
<rect x="92" y="112" width="1020" height="512" fill="#f8fafc" stroke="#cbd5e1"/>
<line x1="92" y1="624.0" x2="1112" y2="624.0" stroke="#e2e8f0" stroke-width="1"/>
<text x="82" y="628.0" text-anchor="end" class="axis">30</text>
<line x1="92" y1="496.0" x2="1112" y2="496.0" stroke="#e2e8f0" stroke-width="1"/>
<text x="82" y="500.0" text-anchor="end" class="axis">70</text>
<line x1="92" y1="368.0" x2="1112" y2="368.0" stroke="#e2e8f0" stroke-width="1"/>
<text x="82" y="372.0" text-anchor="end" class="axis">110</text>
<line x1="92" y1="240.0" x2="1112" y2="240.0" stroke="#e2e8f0" stroke-width="1"/>
<text x="82" y="244.0" text-anchor="end" class="axis">150</text>
<line x1="92" y1="112.0" x2="1112" y2="112.0" stroke="#e2e8f0" stroke-width="1"/>
<text x="82" y="116.0" text-anchor="end" class="axis">190</text>
<line x1="318.5" y1="112" x2="318.5" y2="624" stroke="#e2e8f0" stroke-width="1"/>
<text x="318.5" y="648" text-anchor="middle" class="axis">2023</text>
<line x1="548.7" y1="112" x2="548.7" y2="624" stroke="#e2e8f0" stroke-width="1"/>
<text x="548.7" y="648" text-anchor="middle" class="axis">2024</text>
<line x1="779.6" y1="112" x2="779.6" y2="624" stroke="#e2e8f0" stroke-width="1"/>
<text x="779.6" y="648" text-anchor="middle" class="axis">2025</text>
<line x1="1009.8" y1="112" x2="1009.8" y2="624" stroke="#e2e8f0" stroke-width="1"/>
<text x="1009.8" y="648" text-anchor="middle" class="axis">2026</text>
<polyline points="92.0,400.0 96.4,398.2 100.8,407.7 105.2,403.3 109.7,394.9 114.1,397.4 118.5,398.5 122.9,399.3 127.3,395.8 131.7,405.7 136.2,400.5 140.6,394.0 145.0,388.6 149.4,391.4 153.2,389.8 158.2,393.7 162.6,407.3 167.1,406.7 171.5,419.0 175.9,432.3 180.3,414.6 184.7,417.7 189.1,424.3 193.6,446.8 198.0,437.7 202.4,430.1 206.8,425.5 211.2,429.7 215.6,423.2 220.1,414.7 224.5,409.2 228.9,401.5 233.3,408.8 237.7,409.9 242.1,420.9 246.5,414.5 251.0,423.0 255.4,444.6 259.8,460.0 264.2,450.9 268.6,449.3 273.0,446.5 277.5,428.3 281.9,423.4 286.3,417.3 290.7,419.4 295.1,412.9 299.5,417.3 303.9,426.2 308.4,432.3 312.8,429.7 317.2,432.1 321.6,426.0 326.0,414.0 330.4,413.4 334.9,405.4 339.3,403.0 343.7,407.5 348.1,402.6 352.5,404.0 356.9,402.0 361.4,433.5 365.8,433.9 370.2,427.0 374.6,418.2 378.4,421.9 383.4,417.5 387.8,417.9 392.3,414.8 396.7,421.1 401.1,421.3 405.5,413.1 409.9,412.5 414.3,406.4 418.8,402.4 423.2,401.2 427.6,410.2 432.0,398.0 436.4,395.5 440.8,389.2 445.2,384.5 449.7,379.9 454.1,379.1 458.5,380.8 462.9,385.3 467.3,386.2 471.7,379.5 476.2,381.7 480.6,375.8 485.0,377.1 489.4,374.5 493.8,384.8 498.2,382.6 502.6,388.3 507.1,395.0 511.5,373.9 515.9,374.4 520.3,370.8 524.7,366.6 529.1,367.1 533.6,363.1 538.0,358.9 542.4,355.6 546.8,354.3 551.2,346.1 555.6,346.3 560.1,347.2 564.5,342.2 568.9,351.6 573.3,355.0 577.7,347.4 582.1,346.1 586.5,349.5 591.0,346.1 595.4,345.9 599.8,344.7 603.6,334.7 608.6,336.4 613.0,339.9 617.5,334.3 621.9,327.7 626.3,328.6 630.7,320.4 635.1,321.1 639.5,320.7 643.9,314.1 648.4,315.3 652.8,321.6 657.2,321.6 661.6,319.0 666.0,311.5 670.4,311.3 674.9,319.0 679.3,317.0 683.7,334.4 688.1,339.4 692.5,332.9 696.9,328.8 701.4,324.3 705.8,331.7 710.2,324.3 714.6,323.3 719.0,321.4 723.4,318.1 727.8,318.6 732.3,310.9 736.7,311.9 741.1,321.8 745.5,315.8 749.9,316.3 754.3,307.2 758.8,300.5 763.2,302.0 767.6,303.0 772.0,305.9 776.4,297.6 780.8,294.1 785.2,302.5 789.7,286.2 794.1,281.1 798.5,274.7 802.9,281.4 807.3,272.5 811.7,270.4 816.2,273.7 820.6,284.7 825.0,300.7 829.4,295.1 833.8,291.3 838.2,331.4 842.6,342.4 846.4,327.0 851.5,315.2 855.9,318.9 860.3,319.7 864.7,300.6 869.1,307.1 873.6,298.8 878.0,298.0 882.4,299.3 886.8,300.6 891.2,297.2 895.0,285.0 900.1,276.9 904.5,270.7 908.9,272.6 913.3,291.7 917.7,291.9 922.1,293.5 926.5,292.5 931.0,288.2 935.4,290.3 939.8,294.9 944.2,299.4 948.6,316.6 953.0,323.4 957.5,348.2 961.9,335.0 966.3,325.1 970.7,325.1 975.1,328.9 979.5,330.6 983.9,333.0 988.4,316.5 992.8,309.1 997.2,311.0 1001.6,322.3 1006.0,319.8 1010.4,315.8 1014.9,313.5 1019.3,308.1 1023.7,311.8 1028.1,323.2 1032.5,339.6 1036.9,339.6 1041.4,347.0 1045.8,360.6 1050.2,356.3 1054.6,366.2 1059.0,360.0 1063.4,369.1 1067.2,355.6 1072.3,355.9 1076.7,331.2 1081.1,345.9 1085.5,328.5 1089.9,340.0 1094.3,348.6 1098.8,355.3 1103.2,348.0 1107.6,352.1 1112.0,345.6" fill="none" stroke="#af4c23" stroke-width="2.5" stroke-linejoin="round" stroke-linecap="round"/>
<polyline points="92.0,400.0 96.4,399.2 100.8,401.6 105.2,404.4 109.7,406.7 114.1,410.8 118.5,410.0 122.9,407.3 127.3,410.2 131.7,416.2 136.2,410.2 140.6,414.7 145.0,411.1 149.4,417.6 153.2,417.6 158.2,421.3 162.6,424.0 167.1,426.4 171.5,429.4 175.9,430.7 180.3,416.6 184.7,421.3 189.1,432.7 193.6,438.7 198.0,435.0 202.4,437.7 206.8,434.3 211.2,431.9 215.6,426.6 220.1,421.7 224.5,421.1 228.9,417.6 233.3,425.2 237.7,429.6 242.1,434.0 246.5,428.2 251.0,434.4 255.4,442.3 259.8,445.2 264.2,441.0 268.6,443.4 273.0,439.6 277.5,431.6 281.9,436.9 286.3,430.9 290.7,431.8 295.1,428.7 299.5,425.3 303.9,427.4 308.4,427.6 312.8,428.4 317.2,431.4 321.6,423.9 326.0,419.6 330.4,421.4 334.9,421.4 339.3,419.1 343.7,425.4 348.1,426.3 352.5,427.8 356.9,423.9 361.4,429.0 365.8,429.2 370.2,428.3 374.6,420.6 378.4,422.1 383.4,420.3 387.8,421.5 392.3,420.0 396.7,421.1 401.1,422.4 405.5,423.3 409.9,424.0 414.3,420.4 418.8,419.8 423.2,419.0 427.6,421.9 432.0,418.4 436.4,421.7 440.8,416.7 445.2,415.6 449.7,415.8 454.1,417.0 458.5,416.3 462.9,419.3 467.3,417.2 471.7,413.9 476.2,415.7 480.6,415.7 485.0,418.3 489.4,419.4 493.8,422.1 498.2,421.8 502.6,425.2 507.1,423.4 511.5,413.4 515.9,414.8 520.3,411.9 524.7,410.9 529.1,405.4 533.6,406.0 538.0,400.0 542.4,397.7 546.8,398.1 551.2,401.0 555.6,396.8 560.1,399.0 564.5,397.1 568.9,397.3 573.3,396.6 577.7,398.5 582.1,396.6 586.5,395.5 591.0,394.6 595.4,395.9 599.8,393.3 603.6,393.2 608.6,395.4 613.0,397.3 617.5,398.9 621.9,396.2 626.3,392.5 630.7,393.3 635.1,391.7 639.5,392.5 643.9,392.3 648.4,391.8 652.8,391.1 657.2,389.7 661.6,390.8 666.0,387.8 670.4,385.4 674.9,385.4 679.3,384.1 683.7,384.9 688.1,383.7 692.5,379.9 696.9,377.5 701.4,377.8 705.8,377.0 710.2,374.9 714.6,372.2 719.0,371.7 723.4,373.3 727.8,373.5 732.3,372.5 736.7,374.7 741.1,375.3 745.5,370.7 749.9,373.2 754.3,372.1 758.8,369.7 763.2,368.7 767.6,370.9 772.0,372.7 776.4,372.8 780.8,371.0 785.2,372.9 789.7,368.8 794.1,367.5 798.5,367.7 802.9,367.7 807.3,365.9 811.7,366.4 816.2,364.3 820.6,365.6 825.0,368.2 829.4,366.6 833.8,368.5 838.2,376.0 842.6,376.0 846.4,371.4 851.5,366.9 855.9,366.2 860.3,366.1 864.7,362.2 869.1,364.3 873.6,361.5 878.0,361.1 882.4,360.8 886.8,358.8 891.2,356.3 895.0,354.5 900.1,356.0 904.5,355.0 908.9,353.9 913.3,354.4 917.7,353.3 922.1,352.2 926.5,350.4 931.0,350.4 935.4,348.6 939.8,348.2 944.2,346.8 948.6,347.6 953.0,347.0 957.5,351.1 961.9,347.5 966.3,345.9 970.7,347.2 975.1,347.4 979.5,348.0 983.9,347.3 988.4,344.4 992.8,343.8 997.2,344.6 1001.6,343.8 1006.0,342.7 1010.4,342.4 1014.9,340.8 1019.3,340.4 1023.7,340.1 1028.1,340.2 1032.5,339.8 1036.9,339.6 1041.4,338.9 1045.8,340.2 1050.2,343.3 1054.6,345.6 1059.0,346.9 1063.4,347.8 1067.2,342.0 1072.3,340.1 1076.7,336.9 1081.1,337.7 1085.5,337.7 1089.9,337.3 1094.3,340.5 1098.8,338.4 1103.2,336.5 1107.6,338.7 1112.0,336.3" fill="none" stroke="#334155" stroke-width="2.5" stroke-linejoin="round" stroke-linecap="round"/>
<polyline points="92.0,400.0 96.4,398.7 100.8,400.1 105.2,401.5 109.7,400.2 114.1,401.6 118.5,403.5 122.9,403.3 127.3,404.0 131.7,410.0 136.2,404.4 140.6,404.9 145.0,401.4 149.4,401.1 153.2,402.4 158.2,403.2 162.6,404.6 167.1,407.7 171.5,413.1 175.9,415.2 180.3,410.0 184.7,408.7 189.1,413.4 193.6,417.0 198.0,417.5 202.4,419.3 206.8,417.5 211.2,415.9 215.6,411.2 220.1,410.3 224.5,406.2 228.9,403.5 233.3,407.8 237.7,408.8 242.1,410.9 246.5,408.1 251.0,411.2 255.4,416.5 259.8,419.4 264.2,413.0 268.6,414.7 273.0,413.0 277.5,409.7 281.9,409.7 286.3,405.3 290.7,407.3 295.1,408.1 299.5,405.7 303.9,407.2 308.4,405.8 312.8,403.9 317.2,408.2 321.6,401.8 326.0,399.1 330.4,399.1 334.9,398.3 339.3,396.7 343.7,396.7 348.1,398.0 352.5,399.0 356.9,396.0 361.4,398.6 365.8,404.6 370.2,403.8 374.6,398.1 378.4,397.2 383.4,395.8 387.8,395.5 392.3,394.6 396.7,395.4 401.1,396.2 405.5,395.6 409.9,396.5 414.3,394.0 418.8,392.9 423.2,390.5 427.6,391.0 432.0,387.2 436.4,387.8 440.8,385.8 445.2,386.1 449.7,385.4 454.1,385.6 458.5,384.2 462.9,384.3 467.3,382.8 471.7,380.4 476.2,379.6 480.6,378.0 485.0,379.1 489.4,379.8 493.8,381.1 498.2,379.3 502.6,380.3 507.1,380.9 511.5,377.5 515.9,376.7 520.3,376.2 524.7,376.3 529.1,376.1 533.6,374.7 538.0,372.0 542.4,369.4 546.8,369.1 551.2,369.8 555.6,368.9 560.1,369.3 564.5,369.3 568.9,369.5 573.3,368.3 577.7,367.5 582.1,365.8 586.5,365.2 591.0,364.3 595.4,363.8 599.8,364.2 603.6,362.5 608.6,363.4 613.0,363.7 617.5,363.4 621.9,361.2 626.3,359.7 630.7,359.2 635.1,358.8 639.5,358.4 643.9,357.9 648.4,357.2 652.8,358.4 657.2,357.7 661.6,356.8 666.0,356.1 670.4,354.9 674.9,354.5 679.3,355.2 683.7,356.7 688.1,355.5 692.5,353.9 696.9,353.2 701.4,350.7 705.8,351.8 710.2,350.4 714.6,349.7 719.0,349.7 723.4,347.9 727.8,346.7 732.3,346.1 736.7,345.7 741.1,345.9 745.5,343.4 749.9,343.0 754.3,342.1 758.8,341.7 763.2,341.2 767.6,340.7 772.0,341.6 776.4,340.7 780.8,339.8 785.2,339.8 789.7,338.9 794.1,338.2 798.5,338.4 802.9,339.0 807.3,338.1 811.7,338.6 816.2,338.0 820.6,339.1 825.0,340.8 829.4,340.0 833.8,340.6 838.2,347.6 842.6,345.0 846.4,343.0 851.5,338.7 855.9,336.8 860.3,335.3 864.7,332.9 869.1,334.0 873.6,332.5 878.0,331.4 882.4,332.1 886.8,331.6 891.2,329.6 895.0,328.1 900.1,327.5 904.5,327.3 908.9,327.0 913.3,327.5 917.7,326.4 922.1,326.4 926.5,325.4 931.0,324.7 935.4,324.3 939.8,323.5 944.2,322.6 948.6,322.7 953.0,321.9 957.5,324.8 961.9,323.6 966.3,321.3 970.7,320.4 975.1,319.8 979.5,319.4 983.9,319.8 988.4,317.7 992.8,316.9 997.2,315.9 1001.6,315.9 1006.0,314.3 1010.4,314.0 1014.9,313.0 1019.3,313.0 1023.7,314.4 1028.1,317.1 1032.5,318.3 1036.9,319.1 1041.4,319.1 1045.8,325.5 1050.2,322.5 1054.6,320.6 1059.0,320.0 1063.4,320.9 1067.2,317.9 1072.3,317.7 1076.7,314.2 1081.1,315.1 1085.5,313.9 1089.9,312.5 1094.3,313.3 1098.8,314.1 1103.2,314.1 1107.6,314.3 1112.0,314.9" fill="none" stroke="#0f766e" stroke-width="2.5" stroke-linejoin="round" stroke-linecap="round"/>
<polyline points="92.0,400.0 96.4,393.7 100.8,423.4 105.2,425.9 109.7,415.8 114.1,412.8 118.5,415.4 122.9,414.2 127.3,430.0 131.7,430.0 136.2,422.3 140.6,421.3 145.0,436.0 149.4,449.6 153.2,450.8 158.2,450.0 162.6,462.7 167.1,459.4 171.5,468.0 175.9,470.4 180.3,452.4 184.7,453.9 189.1,471.4 193.6,479.8 198.0,470.7 202.4,472.7 206.8,471.8 211.2,474.1 215.6,463.7 220.1,453.0 224.5,451.9 228.9,437.0 233.3,440.1 237.7,451.5 242.1,461.4 246.5,451.8 251.0,456.4 255.4,466.0 259.8,472.0 264.2,465.9 268.6,460.9 273.0,465.5 277.5,451.1 281.9,453.1 286.3,446.1 290.7,454.9 295.1,448.6 299.5,450.7 303.9,467.1 308.4,480.2 312.8,473.0 317.2,470.8 321.6,466.8 326.0,462.9 330.4,466.5 334.9,461.5 339.3,445.5 343.7,452.8 348.1,451.9 352.5,458.4 356.9,463.9 361.4,505.0 365.8,535.7 370.2,533.8 374.6,532.4 378.4,537.6 383.4,539.0 387.8,536.4 392.3,537.5 396.7,556.0 401.1,564.4 405.5,552.3 409.9,547.7 414.3,539.4 418.8,534.1 423.2,535.8 427.6,549.1 432.0,543.7 436.4,540.9 440.8,533.8 445.2,519.7 449.7,509.6 454.1,510.3 458.5,513.7 462.9,526.8 467.3,531.6 471.7,523.0 476.2,532.8 480.6,531.3 485.0,540.7 489.4,538.1 493.8,541.1 498.2,544.0 502.6,549.7 507.1,550.7 511.5,530.0 515.9,539.8 520.3,523.1 524.7,526.6 529.1,513.3 533.6,506.7 538.0,489.4 542.4,489.9 546.8,489.8 551.2,492.9 555.6,498.8 560.1,495.9 564.5,491.1 568.9,507.6 573.3,509.8 577.7,506.1 582.1,509.8 586.5,511.0 591.0,502.4 595.4,509.9 599.8,505.5 603.6,497.5 608.6,506.6 613.0,514.1 617.5,510.6 621.9,506.7 626.3,500.3 630.7,497.2 635.1,493.4 639.5,503.5 643.9,503.8 648.4,511.1 652.8,515.9 657.2,511.9 661.6,500.9 666.0,506.0 670.4,487.5 674.9,470.1 679.3,455.7 683.7,479.8 688.1,484.3 692.5,475.1 696.9,462.4 701.4,461.9 705.8,475.3 710.2,470.9 714.6,462.5 719.0,468.8 723.4,469.1 727.8,459.3 732.3,452.1 736.7,459.9 741.1,456.5 745.5,428.1 749.9,424.2 754.3,415.4 758.8,415.7 763.2,421.0 767.6,429.0 772.0,446.8 776.4,446.0 780.8,446.1 785.2,456.2 789.7,434.7 794.1,433.5 798.5,429.8 802.9,427.7 807.3,431.0 811.7,442.2 816.2,439.2 820.6,459.0 825.0,463.3 829.4,461.0 833.8,463.1 838.2,495.7 842.6,495.7 846.4,485.9 851.5,474.3 855.9,463.9 860.3,462.4 864.7,450.3 869.1,463.2 873.6,461.0 878.0,455.8 882.4,464.0 886.8,460.6 891.2,447.4 895.0,430.1 900.1,431.7 904.5,429.9 908.9,436.1 913.3,450.3 917.7,446.9 922.1,437.6 926.5,422.7 931.0,419.6 935.4,419.9 939.8,422.0 944.2,420.4 948.6,423.9 953.0,427.3 957.5,442.3 961.9,447.5 966.3,437.6 970.7,443.2 975.1,438.6 979.5,439.0 983.9,435.8 988.4,429.4 992.8,421.4 997.2,410.6 1001.6,409.8 1006.0,411.2 1010.4,417.2 1014.9,406.8 1019.3,405.0 1023.7,406.2 1028.1,400.6 1032.5,378.2 1036.9,389.1 1041.4,386.2 1045.8,410.1 1050.2,418.7 1054.6,427.0 1059.0,427.4 1063.4,424.1 1067.2,411.9 1072.3,398.1 1076.7,391.4 1081.1,398.4 1085.5,394.0 1089.9,393.9 1094.3,407.3 1098.8,396.1 1103.2,395.0 1107.6,392.4 1112.0,377.3" fill="none" stroke="#2563eb" stroke-width="2.5" stroke-linejoin="round" stroke-linecap="round"/>
<polyline points="92.0,400.0 96.4,400.9 100.8,419.3 105.2,416.6 109.7,411.9 114.1,417.6 118.5,421.9 122.9,419.5 127.3,423.3 131.7,431.6 136.2,413.9 140.6,408.2 145.0,408.1 149.4,411.8 153.2,418.5 158.2,426.6 162.6,436.3 167.1,436.7 171.5,443.3 175.9,451.7 180.3,434.0 184.7,437.3 189.1,451.5 193.6,466.9 198.0,450.2 202.4,456.3 206.8,451.2 211.2,453.6 215.6,446.7 220.1,435.0 224.5,434.0 228.9,424.6 233.3,428.0 237.7,439.7 242.1,448.7 246.5,438.8 251.0,452.2 255.4,464.5 259.8,471.9 264.2,468.0 268.6,471.6 273.0,460.1 277.5,449.8 281.9,458.6 286.3,443.2 290.7,445.0 295.1,440.6 299.5,437.4 303.9,446.9 308.4,452.6 312.8,452.8 317.2,453.2 321.6,449.2 326.0,442.0 330.4,443.8 334.9,437.0 339.3,432.3 343.7,435.3 348.1,435.9 352.5,443.4 356.9,438.0 361.4,450.8 365.8,446.9 370.2,442.8 374.6,433.3 378.4,433.4 383.4,431.1 387.8,431.3 392.3,428.7 396.7,431.0 401.1,431.7 405.5,426.8 409.9,425.8 414.3,420.3 418.8,418.9 423.2,411.1 427.6,415.5 432.0,408.4 436.4,411.7 440.8,404.2 445.2,402.1 449.7,398.8 454.1,405.9 458.5,406.7 462.9,413.2 467.3,410.7 471.7,402.8 476.2,406.8 480.6,407.2 485.0,416.4 489.4,418.4 493.8,417.0 498.2,415.6 502.6,422.9 507.1,430.3 511.5,413.4 515.9,409.2 520.3,402.0 524.7,398.8 529.1,396.1 533.6,395.4 538.0,387.6 542.4,384.5 546.8,383.3 551.2,388.6 555.6,382.4 560.1,378.3 564.5,374.8 568.9,369.8 573.3,365.0 577.7,366.2 582.1,360.3 586.5,356.7 591.0,357.5 595.4,357.8 599.8,349.7 603.6,348.4 608.6,351.7 613.0,357.0 617.5,368.2 621.9,358.9 626.3,356.7 630.7,349.9 635.1,343.8 639.5,343.8 643.9,345.3 648.4,340.6 652.8,334.4 657.2,331.9 661.6,332.1 666.0,324.7 670.4,320.8 674.9,328.7 679.3,331.9 683.7,340.1 688.1,340.1 692.5,324.9 696.9,319.3 701.4,318.2 705.8,334.8 710.2,319.4 714.6,313.7 719.0,311.4 723.4,310.3 727.8,305.6 732.3,302.0 736.7,306.0 741.1,311.7 745.5,292.3 749.9,301.2 754.3,294.2 758.8,289.2 763.2,285.4 767.6,288.0 772.0,295.9 776.4,293.1 780.8,295.3 785.2,303.6 789.7,291.3 794.1,283.8 798.5,288.3 802.9,289.0 807.3,282.6 811.7,289.6 816.2,293.7 820.6,306.8 825.0,316.2 829.4,314.2 833.8,320.2 838.2,356.4 842.6,335.8 846.4,341.2 851.5,323.8 855.9,312.2 860.3,313.9 864.7,292.4 869.1,303.3 873.6,295.9 878.0,288.9 882.4,290.4 886.8,291.1 891.2,276.2 895.0,268.7 900.1,269.9 904.5,267.1 908.9,260.2 913.3,271.3 917.7,260.2 922.1,255.6 926.5,254.3 931.0,254.5 935.4,252.9 939.8,245.6 944.2,239.7 948.6,241.1 953.0,235.7 957.5,247.4 961.9,239.2 966.3,229.9 970.7,226.4 975.1,234.4 979.5,233.7 983.9,243.1 988.4,225.4 992.8,223.8 997.2,226.6 1001.6,226.0 1006.0,219.0 1010.4,224.1 1014.9,216.2 1019.3,218.0 1023.7,219.7 1028.1,217.8 1032.5,218.7 1036.9,225.2 1041.4,219.6 1045.8,222.1 1050.2,232.0 1054.6,239.3 1059.0,248.0 1063.4,258.5 1067.2,242.7 1072.3,225.5 1076.7,203.2 1081.1,200.4 1085.5,195.5 1089.9,183.2 1094.3,182.0 1098.8,177.3 1103.2,169.4 1107.6,183.2 1112.0,180.2" fill="none" stroke="#7c3aed" stroke-width="2.5" stroke-linejoin="round" stroke-linecap="round"/>
<text x="20" y="368.0" transform="rotate(-90 20 368.0)" class="label" text-anchor="middle">Normalized adjusted close</text>
<line x1="92" y1="666" x2="120" y2="666" stroke="#af4c23" stroke-width="3"/>
<text x="128" y="670" class="legend">BDC basket</text>
<line x1="214" y1="666" x2="242" y2="666" stroke="#334155" stroke-width="3"/>
<text x="250" y="670" class="legend">High-yield credit</text>
<line x1="386" y1="666" x2="414" y2="666" stroke="#0f766e" stroke-width="3"/>
<text x="422" y="670" class="legend">Senior loan ETF</text>
<line x1="542" y1="666" x2="570" y2="666" stroke="#2563eb" stroke-width="3"/>
<text x="578" y="670" class="legend">Regional banks</text>
<line x1="690" y1="666" x2="718" y2="666" stroke="#7c3aed" stroke-width="3"/>
<text x="726" y="670" class="legend">S&amp;P 500</text>
<text x="92" y="698" class="note">Source: Yahoo Finance chart endpoint for BIZD, HYG, BKLN, KRE, and SPY.</text>
</svg>