<svg xmlns="http://www.w3.org/2000/svg" viewBox="0 0 1200 720" role="img">
<style>
  .title { font: 700 28px Arial, sans-serif; fill: #0f172a; }
  .subtitle { font: 400 17px Arial, sans-serif; fill: #475569; }
  .axis { font: 12px Arial, sans-serif; fill: #475569; }
  .label { font: 700 13px Arial, sans-serif; fill: #334155; }
  .legend { font: 13px Arial, sans-serif; fill: #334155; }
  .note { font: 12px Arial, sans-serif; fill: #64748b; }
</style>
<rect width="1200" height="720" fill="#ffffff"/>
<text x="92" y="44" class="title">Credit Spread Confirmation Versus Funding Pressure</text>
<text x="92" y="74" class="subtitle">High-yield and investment-grade OAS overlaid with SOFR. Stress often confirms after funding pain.</text>
<rect x="92" y="112" width="1020" height="512" fill="#f8fafc" stroke="#cbd5e1"/>
<line x1="92" y1="624.0" x2="1112" y2="624.0" stroke="#e2e8f0" stroke-width="1"/>
<text x="82" y="628.0" text-anchor="end" class="axis">0.4</text>
<line x1="92" y1="521.6" x2="1112" y2="521.6" stroke="#e2e8f0" stroke-width="1"/>
<text x="82" y="525.6" text-anchor="end" class="axis">1.3</text>
<line x1="92" y1="419.2" x2="1112" y2="419.2" stroke="#e2e8f0" stroke-width="1"/>
<text x="82" y="423.2" text-anchor="end" class="axis">2.2</text>
<line x1="92" y1="316.8" x2="1112" y2="316.8" stroke="#e2e8f0" stroke-width="1"/>
<text x="82" y="320.8" text-anchor="end" class="axis">3.0</text>
<line x1="92" y1="214.4" x2="1112" y2="214.4" stroke="#e2e8f0" stroke-width="1"/>
<text x="82" y="218.4" text-anchor="end" class="axis">3.9</text>
<line x1="92" y1="112.0" x2="1112" y2="112.0" stroke="#e2e8f0" stroke-width="1"/>
<text x="82" y="116.0" text-anchor="end" class="axis">4.7</text>
<line x1="507.8" y1="112" x2="507.8" y2="624" stroke="#e2e8f0" stroke-width="1"/>
<text x="507.8" y="648" text-anchor="middle" class="axis">2025</text>
<line x1="927.1" y1="112" x2="927.1" y2="624" stroke="#e2e8f0" stroke-width="1"/>
<text x="927.1" y="648" text-anchor="middle" class="axis">2026</text>
<polyline points="92.0,238.7 100.0,252.9 108.1,255.3 116.1,273.1 124.2,263.6 132.2,280.2 140.2,279.0 148.3,292.1 156.3,281.4 164.4,288.5 172.4,300.4 180.4,309.9 190.8,301.6 196.5,298.0 204.6,289.7 212.6,275.5 220.6,300.4 228.7,309.9 236.7,305.1 244.8,308.7 252.8,306.3 260.9,295.6 268.9,301.6 276.9,284.9 285.0,294.4 295.3,294.4 301.1,287.3 309.1,296.8 317.1,308.7 325.2,307.5 333.2,233.9 341.3,261.2 349.3,284.9 357.3,296.8 366.5,299.2 373.4,273.1 381.5,275.5 389.5,301.6 397.5,302.7 405.6,332.4 413.6,321.7 421.7,333.6 429.7,332.4 437.7,339.5 445.8,363.3 453.8,352.6 461.9,365.6 471.1,350.2 477.9,358.5 486.0,357.3 494.0,336.0 502.1,338.3 510.1,341.9 518.1,341.9 526.2,362.1 534.2,366.8 542.3,357.3 550.3,358.5 558.4,364.4 566.4,345.5 574.4,334.8 582.5,322.9 590.5,289.7 598.6,294.4 606.6,263.6 614.6,147.3 622.7,169.9 629.6,198.3 638.8,239.9 646.8,248.2 654.8,256.5 662.9,300.4 670.9,271.9 680.1,281.4 687.0,308.7 695.0,298.0 703.1,303.9 711.1,317.0 719.2,343.1 727.2,322.9 735.2,327.7 743.3,338.3 751.3,303.9 759.4,326.5 767.4,333.6 775.4,333.6 785.8,338.3 791.5,339.5 799.6,344.3 807.6,352.6 815.6,349.0 823.7,343.1 831.7,298.0 839.8,314.6 847.8,333.6 855.9,326.5 863.9,301.6 871.9,311.0 880.0,296.8 890.3,328.8 896.1,337.2 904.1,330.0 912.1,331.2 920.2,336.0 928.2,339.5 936.3,350.2 944.3,360.9 952.3,357.3 961.5,333.6 968.4,334.8 976.5,325.3 984.5,336.0 993.7,305.1 1000.6,303.9 1008.6,286.1 1016.7,290.9 1024.7,269.5 1032.7,303.9 1040.8,326.5 1048.8,339.5 1056.9,336.0 1064.9,346.6 1072.9,341.9 1081.0,343.1 1089.0,350.2 1099.4,350.2 1105.1,347.8 1112.0,345.5" fill="none" stroke="#af4c23" stroke-width="2.5" stroke-linejoin="round" stroke-linecap="round"/>
<polyline points="92.0,546.0 100.0,554.3 108.1,555.5 116.1,560.2 124.2,554.3 132.2,556.7 140.2,561.4 148.3,562.6 156.3,555.5 164.4,557.8 172.4,565.0 180.4,566.1 190.8,563.8 196.5,566.1 204.6,566.1 212.6,563.8 220.6,568.5 228.7,569.7 236.7,569.7 244.8,569.7 252.8,569.7 260.9,570.9 268.9,568.5 276.9,562.6 285.0,561.4 295.3,561.4 301.1,566.1 309.1,566.1 317.1,565.0 325.2,562.6 333.2,549.5 341.3,550.7 349.3,559.0 357.3,561.4 366.5,561.4 373.4,557.8 381.5,557.8 389.5,565.0 397.5,566.1 405.6,572.1 413.6,575.6 421.7,576.8 429.7,574.5 437.7,573.3 445.8,583.9 453.8,580.4 461.9,580.4 471.1,576.8 477.9,579.2 486.0,582.8 494.0,578.0 502.1,579.2 510.1,576.8 518.1,576.8 526.2,578.0 534.2,580.4 542.3,578.0 550.3,575.6 558.4,580.4 566.4,579.2 574.4,570.9 582.5,569.7 590.5,563.8 598.6,566.1 606.6,563.8 614.6,540.0 622.7,535.3 629.6,543.6 638.8,551.9 646.8,549.5 654.8,554.3 662.9,565.0 670.9,565.0 680.1,566.1 687.0,572.1 695.0,570.9 703.1,570.9 711.1,570.9 719.2,580.4 727.2,576.8 735.2,580.4 743.3,582.8 751.3,578.0 759.4,580.4 767.4,586.3 775.4,583.9 785.8,579.2 791.5,581.6 799.6,583.9 807.6,587.5 815.6,586.3 823.7,586.3 831.7,579.2 839.8,580.4 847.8,583.9 855.9,580.4 863.9,575.6 871.9,576.8 880.0,573.3 890.3,578.0 896.1,581.6 904.1,580.4 912.1,580.4 920.2,581.6 928.2,581.6 936.3,582.8 944.3,586.3 952.3,588.7 961.5,586.3 968.4,585.1 976.5,581.6 984.5,582.8 993.7,573.3 1000.6,575.6 1008.6,565.0 1016.7,570.9 1024.7,567.3 1032.7,573.3 1040.8,578.0 1048.8,580.4 1056.9,580.4 1064.9,579.2 1072.9,581.6 1081.0,586.3 1089.0,587.5 1099.4,587.5 1105.1,587.5 1112.0,586.3" fill="none" stroke="#334155" stroke-width="2.5" stroke-linejoin="round" stroke-linecap="round"/>
<polyline points="92.0,157.1 100.0,157.1 108.1,157.1 116.1,154.7 124.2,154.7 132.2,157.1 140.2,159.6 148.3,157.1 156.3,157.1 164.4,157.1 172.4,157.1 180.4,157.1 187.3,149.8 196.5,154.7 204.6,157.1 212.6,157.1 220.6,154.7 228.7,157.1 236.7,157.1 244.8,157.1 252.8,154.7 260.9,149.8 268.9,152.2 276.9,157.1 285.0,157.1 293.0,152.2 301.1,154.7 309.1,149.8 317.1,149.8 325.2,147.3 333.2,147.3 341.3,149.8 349.3,154.7 357.3,152.2 365.4,154.7 373.4,149.8 381.5,152.2 389.5,274.8 397.5,272.4 405.6,274.8 413.6,279.7 421.7,272.4 429.7,274.8 437.7,267.5 445.8,331.2 453.8,338.6 461.9,338.6 469.9,333.7 477.9,331.2 486.0,331.2 494.0,404.8 502.1,365.5 510.1,402.3 518.1,404.8 526.2,407.2 534.2,395.0 542.3,385.2 550.3,392.5 558.4,397.4 566.4,395.0 574.4,382.7 582.5,395.0 590.5,404.8 598.6,404.8 606.6,395.0 614.6,392.5 622.7,397.4 629.6,399.9 638.8,397.4 646.8,390.1 654.8,409.7 662.9,404.8 670.9,414.6 679.0,392.5 687.0,407.2 695.0,409.7 703.1,407.2 711.1,382.7 718.0,392.5 727.2,402.3 735.2,404.8 743.3,390.1 751.3,395.0 759.4,392.5 767.4,390.1 775.4,390.1 783.5,395.0 791.5,375.4 799.6,375.4 807.6,444.0 815.6,439.1 823.7,434.2 831.7,441.6 839.8,434.2 847.8,419.5 855.9,424.4 863.9,495.5 871.9,490.6 880.0,495.5 888.0,448.9 896.1,495.5 904.1,559.3 912.1,561.7 920.2,537.2 928.2,539.6 936.3,566.6 944.3,564.2 952.3,564.2 960.4,556.8 968.4,566.6 976.5,561.7 984.5,561.7 992.5,556.8 1000.6,564.2 1008.6,564.2 1016.7,571.5 1024.7,569.1 1031.6,561.7 1040.8,574.0 1048.8,564.2 1056.9,561.7 1064.9,566.6 1072.9,576.4 1081.0,588.7 1089.0,588.7 1097.1,569.1 1105.1,569.1 1112.0,576.4" fill="none" stroke="#0f766e" stroke-width="2.5" stroke-linejoin="round" stroke-linecap="round" stroke-dasharray="7 5"/>
<text x="20" y="368.0" transform="rotate(-90 20 368.0)" class="label" text-anchor="middle">OAS (%)</text>
<text x="1180" y="368.0" transform="rotate(90 1180 368.0)" class="label" text-anchor="middle">SOFR (%)</text>
<line x1="92" y1="666" x2="120" y2="666" stroke="#af4c23" stroke-width="3"/>
<text x="128" y="670" class="legend">High Yield OAS</text>
<line x1="240" y1="666" x2="268" y2="666" stroke="#334155" stroke-width="3"/>
<text x="276" y="670" class="legend">IG OAS</text>
<line x1="362" y1="666" x2="390" y2="666" stroke="#0f766e" stroke-width="3"/>
<text x="398" y="670" class="legend">SOFR</text>
<text x="92" y="698" class="note">Source: FRED series BAMLH0A0HYM2, BAMLC0A0CM, and SOFR.</text>
</svg>