<svg xmlns="http://www.w3.org/2000/svg" viewBox="0 0 1200 720" role="img">
<style>
  .title { font: 700 28px Arial, sans-serif; fill: #0f172a; }
  .subtitle { font: 400 17px Arial, sans-serif; fill: #475569; }
  .axis { font: 12px Arial, sans-serif; fill: #475569; }
  .label { font: 700 13px Arial, sans-serif; fill: #334155; }
  .legend { font: 13px Arial, sans-serif; fill: #334155; }
  .note { font: 12px Arial, sans-serif; fill: #64748b; }
</style>
<rect width="1200" height="720" fill="#ffffff"/>
<text x="92" y="44" class="title">Scenario Forecast: Public Proxy Response</text>
<text x="92" y="74" class="subtitle">Simulated normalized paths for BDC/credit-risk proxy behavior under stress, middle, and relief conditions.</text>
<rect x="92" y="112" width="1020" height="512" fill="#f8fafc" stroke="#cbd5e1"/>
<line x1="92" y1="624.0" x2="1112" y2="624.0" stroke="#e2e8f0" stroke-width="1"/>
<text x="82" y="628.0" text-anchor="end" class="axis">50</text>
<line x1="92" y1="496.0" x2="1112" y2="496.0" stroke="#e2e8f0" stroke-width="1"/>
<text x="82" y="500.0" text-anchor="end" class="axis">70</text>
<line x1="92" y1="368.0" x2="1112" y2="368.0" stroke="#e2e8f0" stroke-width="1"/>
<text x="82" y="372.0" text-anchor="end" class="axis">90</text>
<line x1="92" y1="240.0" x2="1112" y2="240.0" stroke="#e2e8f0" stroke-width="1"/>
<text x="82" y="244.0" text-anchor="end" class="axis">110</text>
<line x1="92" y1="112.0" x2="1112" y2="112.0" stroke="#e2e8f0" stroke-width="1"/>
<text x="82" y="116.0" text-anchor="end" class="axis">130</text>
<line x1="239.4" y1="112" x2="239.4" y2="624" stroke="#e2e8f0" stroke-width="1"/>
<text x="239.4" y="648" text-anchor="middle" class="axis">2027</text>
<line x1="530.3" y1="112" x2="530.3" y2="624" stroke="#e2e8f0" stroke-width="1"/>
<text x="530.3" y="648" text-anchor="middle" class="axis">2028</text>
<line x1="821.9" y1="112" x2="821.9" y2="624" stroke="#e2e8f0" stroke-width="1"/>
<text x="821.9" y="648" text-anchor="middle" class="axis">2029</text>
<polyline points="92.0,304.0 238.6,329.6 382.9,380.8 529.5,444.8 674.5,496.0 821.1,534.4 965.4,560.0 1112.0,572.8" fill="none" stroke="#af4c23" stroke-width="2.5" stroke-linejoin="round" stroke-linecap="round"/>
<polyline points="92.0,304.0 238.6,310.4 382.9,323.2 529.5,336.0 674.5,348.8 821.1,361.6 965.4,368.0 1112.0,368.0" fill="none" stroke="#334155" stroke-width="2.5" stroke-linejoin="round" stroke-linecap="round"/>
<polyline points="92.0,304.0 238.6,284.8 382.9,265.6 529.5,252.8 674.5,240.0 821.1,227.2 965.4,214.4 1112.0,201.6" fill="none" stroke="#0f766e" stroke-width="2.5" stroke-linejoin="round" stroke-linecap="round"/>
<text x="20" y="368.0" transform="rotate(-90 20 368.0)" class="label" text-anchor="middle">Normalized proxy path</text>
<line x1="92" y1="666" x2="120" y2="666" stroke="#af4c23" stroke-width="3"/>
<text x="128" y="670" class="legend">Stress: BDC proxy</text>
<line x1="264" y1="666" x2="292" y2="666" stroke="#334155" stroke-width="3"/>
<text x="300" y="670" class="legend">Middle: delayed recognition</text>
<line x1="516" y1="666" x2="544" y2="666" stroke="#0f766e" stroke-width="3"/>
<text x="552" y="670" class="legend">Relief: refinancing reopens</text>
<text x="92" y="698" class="note">Illustrative scenario simulation for risk monitoring only; proxy paths are not forecasts or expected returns.</text>
</svg>