<svg xmlns="http://www.w3.org/2000/svg" viewBox="0 0 1200 720" role="img">
<style>
  .title { font: 700 28px Arial, sans-serif; fill: #0f172a; }
  .subtitle { font: 400 17px Arial, sans-serif; fill: #475569; }
  .axis { font: 12px Arial, sans-serif; fill: #475569; }
  .label { font: 700 13px Arial, sans-serif; fill: #334155; }
  .legend { font: 13px Arial, sans-serif; fill: #334155; }
  .note { font: 12px Arial, sans-serif; fill: #64748b; }
</style>
<rect width="1200" height="720" fill="#ffffff"/>
<text x="92" y="44" class="title">Scenario Forecast: Confirmation Versus Relief</text>
<text x="92" y="74" class="subtitle">Illustrative condition score: SOFR persistence, spread stress, BDC dispersion, and reported credit strain.</text>
<rect x="92" y="112" width="1020" height="512" fill="#f8fafc" stroke="#cbd5e1"/>
<line x1="92" y1="624.0" x2="1112" y2="624.0" stroke="#e2e8f0" stroke-width="1"/>
<text x="82" y="628.0" text-anchor="end" class="axis">0</text>
<line x1="92" y1="521.6" x2="1112" y2="521.6" stroke="#e2e8f0" stroke-width="1"/>
<text x="82" y="525.6" text-anchor="end" class="axis">20</text>
<line x1="92" y1="419.2" x2="1112" y2="419.2" stroke="#e2e8f0" stroke-width="1"/>
<text x="82" y="423.2" text-anchor="end" class="axis">40</text>
<line x1="92" y1="316.8" x2="1112" y2="316.8" stroke="#e2e8f0" stroke-width="1"/>
<text x="82" y="320.8" text-anchor="end" class="axis">60</text>
<line x1="92" y1="214.4" x2="1112" y2="214.4" stroke="#e2e8f0" stroke-width="1"/>
<text x="82" y="218.4" text-anchor="end" class="axis">80</text>
<line x1="92" y1="112.0" x2="1112" y2="112.0" stroke="#e2e8f0" stroke-width="1"/>
<text x="82" y="116.0" text-anchor="end" class="axis">100</text>
<line x1="239.4" y1="112" x2="239.4" y2="624" stroke="#e2e8f0" stroke-width="1"/>
<text x="239.4" y="648" text-anchor="middle" class="axis">2027</text>
<line x1="530.3" y1="112" x2="530.3" y2="624" stroke="#e2e8f0" stroke-width="1"/>
<text x="530.3" y="648" text-anchor="middle" class="axis">2028</text>
<line x1="821.9" y1="112" x2="821.9" y2="624" stroke="#e2e8f0" stroke-width="1"/>
<text x="821.9" y="648" text-anchor="middle" class="axis">2029</text>
<polyline points="92.0,470.4 238.6,429.4 382.9,357.8 529.5,301.4 674.5,255.4 821.1,214.4 965.4,183.7 1112.0,163.2" fill="none" stroke="#af4c23" stroke-width="2.5" stroke-linejoin="round" stroke-linecap="round"/>
<polyline points="92.0,470.4 238.6,449.9 382.9,424.3 529.5,409.0 674.5,393.6 821.1,383.4 965.4,373.1 1112.0,368.0" fill="none" stroke="#334155" stroke-width="2.5" stroke-linejoin="round" stroke-linecap="round"/>
<polyline points="92.0,470.4 238.6,485.8 382.9,501.1 529.5,516.5 674.5,531.8 821.1,542.1 965.4,547.2 1112.0,552.3" fill="none" stroke="#0f766e" stroke-width="2.5" stroke-linejoin="round" stroke-linecap="round"/>
<text x="20" y="368.0" transform="rotate(-90 20 368.0)" class="label" text-anchor="middle">Composite condition score (0-100)</text>
<line x1="92" y1="666" x2="120" y2="666" stroke="#af4c23" stroke-width="3"/>
<text x="128" y="670" class="legend">Confirmation stress</text>
<line x1="280" y1="666" x2="308" y2="666" stroke="#334155" stroke-width="3"/>
<text x="316" y="670" class="legend">Muddled middle</text>
<line x1="428" y1="666" x2="456" y2="666" stroke="#0f766e" stroke-width="3"/>
<text x="464" y="670" class="legend">Invalidation relief</text>
<text x="92" y="698" class="note">Illustrative scenario simulation for risk monitoring only; not a price target, valuation, forecast, recommendation, or guarantee.</text>
</svg>