<svg xmlns="http://www.w3.org/2000/svg" viewBox="0 0 1200 720" role="img">
<style>
  .title { font: 700 28px Arial, sans-serif; fill: #0f172a; }
  .subtitle { font: 400 17px Arial, sans-serif; fill: #475569; }
  .axis { font: 12px Arial, sans-serif; fill: #475569; }
  .label { font: 700 13px Arial, sans-serif; fill: #334155; }
  .legend { font: 13px Arial, sans-serif; fill: #334155; }
  .note { font: 12px Arial, sans-serif; fill: #64748b; }
</style>
<rect width="1200" height="720" fill="#ffffff"/>
<text x="92" y="44" class="title">SOFR, Fed Funds, and the Front-End Signal</text>
<text x="92" y="74" class="subtitle">Daily observations, weekly sampled. Funding pressure hits floating-rate borrowers first.</text>
<rect x="92" y="112" width="1020" height="512" fill="#f8fafc" stroke="#cbd5e1"/>
<line x1="92" y1="624.0" x2="1112" y2="624.0" stroke="#e2e8f0" stroke-width="1"/>
<text x="82" y="628.0" text-anchor="end" class="axis">-0.4</text>
<line x1="92" y1="521.6" x2="1112" y2="521.6" stroke="#e2e8f0" stroke-width="1"/>
<text x="82" y="525.6" text-anchor="end" class="axis">0.9</text>
<line x1="92" y1="419.2" x2="1112" y2="419.2" stroke="#e2e8f0" stroke-width="1"/>
<text x="82" y="423.2" text-anchor="end" class="axis">2.1</text>
<line x1="92" y1="316.8" x2="1112" y2="316.8" stroke="#e2e8f0" stroke-width="1"/>
<text x="82" y="320.8" text-anchor="end" class="axis">3.3</text>
<line x1="92" y1="214.4" x2="1112" y2="214.4" stroke="#e2e8f0" stroke-width="1"/>
<text x="82" y="218.4" text-anchor="end" class="axis">4.6</text>
<line x1="92" y1="112.0" x2="1112" y2="112.0" stroke="#e2e8f0" stroke-width="1"/>
<text x="82" y="116.0" text-anchor="end" class="axis">5.8</text>
<line x1="321.0" y1="112" x2="321.0" y2="624" stroke="#e2e8f0" stroke-width="1"/>
<text x="321.0" y="648" text-anchor="middle" class="axis">2023</text>
<line x1="550.7" y1="112" x2="550.7" y2="624" stroke="#e2e8f0" stroke-width="1"/>
<text x="550.7" y="648" text-anchor="middle" class="axis">2024</text>
<line x1="781.0" y1="112" x2="781.0" y2="624" stroke="#e2e8f0" stroke-width="1"/>
<text x="781.0" y="648" text-anchor="middle" class="axis">2025</text>
<line x1="1010.7" y1="112" x2="1010.7" y2="624" stroke="#e2e8f0" stroke-width="1"/>
<text x="1010.7" y="648" text-anchor="middle" class="axis">2026</text>
<polyline points="95.1,588.7 99.6,588.7 104.0,588.7 108.4,588.7 112.8,588.7 117.2,588.7 121.6,588.7 126.0,588.7 130.4,588.7 134.8,588.7 139.2,568.0 143.6,569.7 148.0,568.0 152.4,568.0 156.2,568.9 161.2,570.5 165.6,569.7 170.0,528.4 174.4,527.5 178.8,528.4 183.2,528.4 187.6,528.4 192.0,530.8 196.5,473.0 200.9,472.1 205.3,467.2 209.7,466.4 214.1,465.5 218.5,467.2 222.9,405.2 227.3,404.4 231.7,404.4 236.1,404.4 240.5,404.4 244.9,403.5 249.3,404.4 253.7,405.2 258.1,345.7 262.5,346.5 266.9,340.7 271.3,341.6 275.7,343.2 280.1,340.7 284.5,278.7 288.3,280.4 293.4,278.7 297.8,278.7 302.2,277.9 306.6,278.7 311.0,235.8 315.4,237.4 319.8,237.4 324.2,236.6 328.6,237.4 333.0,237.4 337.4,237.4 341.8,216.7 346.2,216.7 350.6,216.7 355.0,216.7 359.4,216.7 363.8,216.7 368.2,216.7 372.6,196.1 377.0,190.3 380.8,195.3 385.9,196.1 390.3,196.1 394.7,195.3 399.1,174.6 403.5,175.4 407.9,175.4 412.3,174.6 416.7,173.8 421.1,175.4 425.5,175.4 429.9,175.4 434.3,172.1 438.7,174.6 443.1,175.4 447.5,175.4 451.9,154.7 456.3,154.7 460.7,154.7 465.1,154.7 469.5,154.7 473.9,153.9 478.4,154.7 482.8,153.9 487.2,154.7 491.6,153.9 496.0,153.9 500.4,153.9 504.8,154.7 509.2,153.9 513.6,153.1 518.0,153.1 522.4,153.1 526.8,153.1 531.2,147.3 535.6,153.1 540.0,153.1 544.4,153.1 548.8,148.1 553.2,153.9 557.6,153.9 562.0,153.9 566.4,153.1 570.9,153.1 575.3,153.9 579.7,154.7 584.1,153.9 588.5,153.9 592.9,153.9 597.3,153.9 601.7,153.9 605.5,151.4 610.5,153.1 614.9,153.9 619.3,153.9 623.7,153.1 628.1,153.9 632.5,153.9 636.9,153.9 641.3,153.1 645.7,151.4 650.1,152.3 654.5,153.9 658.9,153.9 663.4,152.3 667.8,153.1 672.2,151.4 676.6,151.4 681.0,150.6 685.4,150.6 689.8,151.4 694.2,153.1 698.6,152.3 703.0,153.1 707.4,151.4 711.8,152.3 716.2,193.6 720.6,192.8 725.0,193.6 729.4,195.3 733.8,192.8 738.2,193.6 742.6,191.1 747.0,212.6 751.4,215.1 755.8,215.1 760.3,213.4 764.7,212.6 769.1,212.6 773.5,237.4 777.9,224.2 782.3,236.6 786.7,237.4 791.1,238.2 795.5,234.1 799.9,230.8 804.3,233.3 808.7,234.9 813.1,234.1 817.5,230.0 821.9,234.1 826.3,237.4 830.7,237.4 835.1,234.1 839.5,233.3 843.9,234.9 847.7,235.8 852.8,234.9 857.2,232.4 861.6,239.1 866.0,237.4 870.4,240.7 874.8,233.3 879.2,238.2 883.6,239.1 888.0,238.2 892.4,230.0 896.2,233.3 901.2,236.6 905.6,237.4 910.0,232.4 914.4,234.1 918.8,233.3 923.2,232.4 927.6,232.4 932.0,234.1 936.4,227.5 940.8,227.5 945.3,250.6 949.7,249.0 954.1,247.3 958.5,249.8 962.9,247.3 967.3,242.4 971.7,244.0 976.1,268.0 980.5,266.3 984.9,268.0 989.3,252.3 993.7,268.0 998.1,289.5 1002.5,290.3 1006.9,282.0 1011.3,282.9 1015.7,292.0 1020.1,291.1 1024.5,291.1 1028.9,288.7 1033.3,292.0 1037.7,290.3 1042.2,290.3 1046.6,288.7 1051.0,291.1 1055.4,291.1 1059.8,293.6 1064.2,292.8 1068.0,290.3 1073.0,294.4 1077.4,291.1 1081.8,290.3 1086.2,292.0 1090.6,295.3 1095.0,299.4 1099.4,299.4 1103.8,292.8 1108.2,292.8 1112.0,295.3" fill="none" stroke="#af4c23" stroke-width="2.5" stroke-linejoin="round" stroke-linecap="round"/>
<polyline points="92.0,587.0 96.4,586.2 100.8,586.2 105.2,586.2 109.6,586.2 114.0,586.2 118.4,586.2 122.8,586.2 127.2,586.2 131.6,586.2 136.0,586.2 140.5,565.5 144.9,565.5 149.3,565.5 153.7,565.5 158.1,565.5 162.5,565.5 166.9,565.5 171.3,524.2 175.7,524.2 180.1,524.2 184.5,524.2 188.9,524.2 193.3,524.2 197.7,462.2 202.1,462.2 206.5,462.2 210.9,462.2 215.3,462.2 219.7,462.2 224.1,401.1 228.5,400.2 233.0,400.2 237.4,400.2 241.8,400.2 246.2,400.2 250.6,400.2 255.0,400.2 259.4,338.2 263.8,338.2 268.2,338.2 272.6,338.2 277.0,338.2 281.4,338.2 285.8,276.3 290.2,276.3 294.6,276.3 299.0,276.3 303.4,276.3 307.8,276.3 312.2,234.9 316.6,234.9 321.0,234.9 325.4,234.9 329.9,234.9 334.3,234.9 338.7,234.9 343.1,214.3 347.5,214.3 351.9,214.3 356.3,214.3 360.7,215.1 365.1,215.1 369.5,214.3 373.9,193.6 378.3,193.6 382.7,193.6 387.1,193.6 391.5,193.6 395.9,193.6 400.3,172.9 404.7,172.9 409.1,172.9 413.5,172.9 417.9,172.9 422.4,172.9 426.8,172.9 431.2,173.8 435.6,172.9 440.0,172.9 444.4,172.9 448.8,172.9 453.2,152.3 457.6,152.3 462.0,152.3 466.4,152.3 470.8,152.3 475.2,152.3 479.6,152.3 484.0,152.3 488.4,152.3 492.8,152.3 497.2,152.3 501.6,152.3 506.0,152.3 510.4,152.3 514.9,152.3 519.3,152.3 523.7,152.3 528.1,152.3 532.5,152.3 536.9,152.3 541.3,152.3 545.7,152.3 550.1,152.3 554.5,152.3 558.9,152.3 563.3,152.3 567.7,152.3 572.1,152.3 576.5,152.3 580.9,152.3 585.3,152.3 589.7,152.3 594.1,152.3 598.5,152.3 602.9,152.3 607.3,152.3 611.8,152.3 616.2,152.3 620.6,152.3 625.0,152.3 629.4,152.3 633.8,152.3 638.2,152.3 642.6,152.3 647.0,152.3 651.4,152.3 655.8,152.3 660.2,152.3 664.6,152.3 669.0,152.3 673.4,152.3 677.8,152.3 682.2,152.3 686.6,152.3 691.0,152.3 695.4,152.3 699.8,152.3 704.3,152.3 708.7,152.3 713.1,152.3 717.5,193.6 721.9,193.6 726.3,193.6 730.7,193.6 735.1,193.6 739.5,193.6 743.9,193.6 748.3,214.3 752.7,214.3 757.1,214.3 761.5,214.3 765.9,214.3 770.3,214.3 774.7,234.9 779.1,234.9 783.5,234.9 787.9,234.9 792.3,234.9 796.8,234.9 801.2,234.9 805.6,234.9 810.0,234.9 814.4,234.9 818.8,234.9 823.2,234.9 827.6,234.9 832.0,234.9 836.4,234.9 840.8,234.9 845.2,234.9 849.6,234.9 854.0,234.9 858.4,234.9 862.8,234.9 867.2,234.9 871.6,234.9 876.0,234.9 880.4,234.9 884.8,234.9 889.2,234.9 893.7,234.9 898.1,234.9 902.5,234.9 906.9,234.9 911.3,234.9 915.7,234.9 920.1,234.9 924.5,234.9 928.9,234.9 933.3,234.9 937.7,234.9 942.1,234.9 946.5,255.6 950.9,254.8 955.3,254.8 959.7,253.9 964.1,253.1 968.5,253.1 972.9,273.8 977.3,272.9 981.7,272.1 986.2,272.1 990.6,271.3 995.0,271.3 999.4,292.0 1003.8,292.0 1008.2,292.0 1012.6,292.0 1017.0,292.0 1021.4,292.0 1025.8,292.0 1030.2,292.0 1034.6,292.0 1039.0,292.0 1043.4,292.0 1047.8,292.0 1052.2,292.0 1056.6,292.0 1061.0,292.0 1065.4,292.0 1069.8,292.0 1074.2,292.0 1078.7,292.0 1083.1,292.0 1087.5,292.0 1091.9,292.8 1096.3,292.8 1100.7,293.6 1105.1,293.6 1109.5,293.6 1112.0,293.6" fill="none" stroke="#0f766e" stroke-width="2.5" stroke-linejoin="round" stroke-linecap="round"/>
<polyline points="95.1,520.9 99.6,511.0 104.0,509.3 108.4,497.8 112.8,484.5 117.2,468.8 121.6,471.3 126.0,464.7 130.4,468.8 134.8,448.2 139.2,430.0 143.6,402.7 148.0,391.1 152.4,383.7 156.2,388.7 161.2,368.0 165.6,369.7 170.0,368.0 174.4,377.1 178.8,377.9 183.2,388.7 187.6,373.0 192.0,339.9 196.5,330.8 200.9,341.6 205.3,358.1 209.7,334.9 214.1,334.1 218.5,346.5 222.9,353.9 227.3,325.0 231.7,324.2 236.1,324.2 240.5,314.3 244.9,311.8 249.3,298.6 253.7,274.6 258.1,245.7 262.5,244.0 266.9,237.4 271.3,222.5 275.7,221.7 280.1,228.3 284.5,207.6 288.3,234.1 293.4,220.0 297.8,227.5 302.2,239.1 306.6,234.9 311.0,248.1 315.4,236.6 319.8,228.3 324.2,242.4 328.6,244.0 333.0,250.6 337.4,246.5 341.8,237.4 346.2,220.9 350.6,212.6 355.0,197.7 359.4,191.1 363.8,212.6 368.2,277.9 372.6,282.0 377.0,257.2 381.5,264.7 385.9,255.6 390.3,248.1 394.7,258.9 399.1,268.8 403.5,263.9 407.9,239.1 412.3,217.6 416.7,220.9 421.1,213.4 425.5,204.3 429.9,203.5 434.3,190.3 438.7,184.5 443.1,201.0 447.5,194.4 451.9,190.3 456.3,197.7 460.7,188.6 465.1,186.2 469.5,177.1 473.9,190.3 478.4,181.2 482.8,177.9 487.2,171.3 491.6,177.1 496.0,172.9 500.4,176.2 504.8,173.8 509.2,180.4 513.6,193.6 518.0,176.2 522.4,189.5 526.8,186.2 531.2,215.9 535.6,203.5 540.0,225.8 544.4,236.6 548.8,243.2 553.2,229.1 557.6,250.6 562.0,230.0 566.4,234.1 570.9,232.4 575.3,222.5 579.7,209.3 584.1,206.8 588.5,217.6 592.9,222.5 597.3,202.7 601.7,213.4 605.5,213.4 610.5,201.9 614.9,189.5 619.3,182.0 623.7,182.9 628.1,195.3 632.5,190.3 636.9,193.6 641.3,185.3 645.7,188.6 650.1,190.3 654.5,206.8 658.9,204.3 663.4,203.5 667.8,212.6 672.2,225.0 676.6,221.7 681.0,232.4 685.4,272.1 689.8,258.1 694.2,257.2 698.6,270.5 703.0,269.6 707.4,290.3 711.8,297.7 716.2,299.4 720.6,299.4 725.0,268.0 729.4,266.3 733.8,266.3 738.2,253.1 742.6,244.8 747.0,240.7 751.4,236.6 755.8,231.6 760.3,251.5 764.7,253.9 769.1,241.5 773.5,237.4 777.9,236.6 782.3,239.1 786.7,229.1 791.1,239.9 795.5,239.9 799.9,244.0 804.3,238.2 808.7,240.7 813.1,246.5 817.5,263.0 821.9,263.0 826.3,260.5 830.7,267.2 835.1,271.3 839.5,288.7 843.9,265.5 847.7,277.9 852.8,283.7 857.2,276.3 861.6,272.1 866.0,263.9 870.4,262.2 874.8,271.3 879.2,258.9 883.6,265.5 888.0,270.5 892.4,284.5 896.2,272.1 901.2,270.5 905.6,272.1 910.0,269.6 914.4,287.8 918.8,282.0 923.2,282.9 927.6,288.7 932.0,296.1 936.4,302.7 940.8,298.6 945.3,297.7 949.7,292.8 954.1,296.9 958.5,301.9 962.9,306.8 967.3,305.2 971.7,295.3 976.1,299.4 980.5,293.6 984.9,302.7 989.3,306.0 993.7,298.6 998.1,301.9 1002.5,305.2 1006.9,306.8 1011.3,306.0 1015.7,300.2 1020.1,296.1 1024.5,295.3 1028.9,301.9 1033.3,303.5 1037.7,311.8 1042.2,305.2 1046.6,313.4 1051.0,298.6 1055.4,284.5 1059.8,272.1 1064.2,272.1 1068.6,275.4 1073.0,277.9 1077.4,286.2 1081.8,280.4 1086.2,272.1 1090.6,270.5 1095.0,254.8 1099.4,251.5 1103.8,263.9 1108.2,248.1 1112.0,258.1" fill="none" stroke="#334155" stroke-width="2.5" stroke-linejoin="round" stroke-linecap="round"/>
<text x="20" y="368.0" transform="rotate(-90 20 368.0)" class="label" text-anchor="middle">Rate (%)</text>
<line x1="92" y1="666" x2="120" y2="666" stroke="#af4c23" stroke-width="3"/>
<text x="128" y="670" class="legend">SOFR</text>
<line x1="214" y1="666" x2="242" y2="666" stroke="#0f766e" stroke-width="3"/>
<text x="250" y="670" class="legend">Effective Fed Funds</text>
<line x1="402" y1="666" x2="430" y2="666" stroke="#334155" stroke-width="3"/>
<text x="438" y="670" class="legend">2Y Treasury</text>
<text x="92" y="698" class="note">Source: FRED series SOFR, DFF, and DGS2.</text>
</svg>