<svg xmlns="http://www.w3.org/2000/svg" viewBox="0 0 1200 720" role="img">
<style>
  .title { font: 700 28px Arial, sans-serif; fill: #0f172a; }
  .subtitle { font: 400 17px Arial, sans-serif; fill: #475569; }
  .axis { font: 12px Arial, sans-serif; fill: #475569; }
  .label { font: 700 13px Arial, sans-serif; fill: #334155; }
  .legend { font: 13px Arial, sans-serif; fill: #334155; }
  .note { font: 12px Arial, sans-serif; fill: #64748b; }
</style>
<rect width="1200" height="720" fill="#ffffff"/>
<text x="92" y="44" class="title">Treasury Curve Pressure</text>
<text x="92" y="74" class="subtitle">2Y, 10Y, and 30Y Treasury yields. The long end prices duration, inflation, and fiscal trust.</text>
<rect x="92" y="112" width="1020" height="512" fill="#f8fafc" stroke="#cbd5e1"/>
<line x1="92" y1="624.0" x2="1112" y2="624.0" stroke="#e2e8f0" stroke-width="1"/>
<text x="82" y="628.0" text-anchor="end" class="axis">-0.3</text>
<line x1="92" y1="521.6" x2="1112" y2="521.6" stroke="#e2e8f0" stroke-width="1"/>
<text x="82" y="525.6" text-anchor="end" class="axis">0.9</text>
<line x1="92" y1="419.2" x2="1112" y2="419.2" stroke="#e2e8f0" stroke-width="1"/>
<text x="82" y="423.2" text-anchor="end" class="axis">2.0</text>
<line x1="92" y1="316.8" x2="1112" y2="316.8" stroke="#e2e8f0" stroke-width="1"/>
<text x="82" y="320.8" text-anchor="end" class="axis">3.2</text>
<line x1="92" y1="214.4" x2="1112" y2="214.4" stroke="#e2e8f0" stroke-width="1"/>
<text x="82" y="218.4" text-anchor="end" class="axis">4.4</text>
<line x1="92" y1="112.0" x2="1112" y2="112.0" stroke="#e2e8f0" stroke-width="1"/>
<text x="82" y="116.0" text-anchor="end" class="axis">5.5</text>
<line x1="408.3" y1="112" x2="408.3" y2="624" stroke="#e2e8f0" stroke-width="1"/>
<text x="408.3" y="648" text-anchor="middle" class="axis">2022</text>
<line x1="725.0" y1="112" x2="725.0" y2="624" stroke="#e2e8f0" stroke-width="1"/>
<text x="725.0" y="648" text-anchor="middle" class="axis">2024</text>
<line x1="1042.1" y1="112" x2="1042.1" y2="624" stroke="#e2e8f0" stroke-width="1"/>
<text x="1042.1" y="648" text-anchor="middle" class="axis">2026</text>
<polyline points="92.0,462.3 95.0,459.7 98.1,457.9 101.1,465.8 104.1,479.9 107.2,472.9 110.2,472.0 113.3,479.0 116.3,521.1 119.3,553.6 122.4,553.6 125.4,564.1 128.4,574.6 131.5,576.4 134.1,576.4 137.6,579.0 140.6,577.3 143.6,579.0 146.7,582.5 149.7,582.5 152.7,581.7 155.8,582.5 158.8,577.3 161.9,579.9 164.9,579.9 167.9,581.7 170.5,582.5 174.0,582.5 177.0,584.3 180.1,584.3 183.1,586.9 186.1,585.2 189.2,584.3 192.2,582.5 195.3,584.3 198.3,584.3 201.3,585.2 204.4,584.3 207.4,586.1 210.4,585.2 213.5,582.5 216.5,584.3 219.6,580.8 222.6,584.3 225.6,582.5 228.7,581.7 231.7,582.5 234.7,582.5 237.8,582.5 240.8,586.9 243.9,585.2 246.5,585.2 249.5,585.2 253.0,584.3 256.0,585.2 259.0,585.2 262.1,586.9 265.1,588.7 268.1,586.9 271.2,586.9 274.2,584.3 277.3,584.3 280.3,584.3 283.3,582.5 286.4,584.3 289.4,579.9 292.4,582.5 295.5,582.5 298.5,582.5 301.6,582.5 304.6,584.3 307.6,582.5 310.7,581.7 313.7,584.3 316.7,584.3 319.8,582.5 322.8,573.8 325.8,572.0 328.9,575.5 331.9,576.4 335.0,574.6 338.0,577.3 341.0,579.9 344.1,578.2 347.1,576.4 350.1,576.4 353.2,577.3 356.2,578.2 359.3,576.4 362.3,576.4 365.3,571.1 368.4,572.9 371.4,568.5 374.4,560.6 377.5,554.5 380.5,554.5 383.6,562.4 386.6,550.1 389.6,551.0 392.7,552.7 395.7,543.9 398.7,537.8 401.8,538.7 404.4,534.3 407.8,532.5 410.9,520.2 413.9,509.7 417.0,508.0 420.0,495.7 423.0,481.6 426.1,465.0 429.1,467.6 432.1,460.6 435.2,465.0 438.2,443.0 441.3,423.7 444.3,394.8 447.3,382.5 450.4,374.6 453.0,379.8 456.4,357.9 459.5,359.7 462.5,357.9 465.6,367.6 468.6,368.4 471.6,379.8 474.7,363.2 477.7,328.1 480.7,318.4 483.8,329.8 486.8,347.4 489.8,322.8 492.9,321.9 495.9,335.1 499.0,343.0 502.0,312.3 505.0,311.4 508.1,311.4 511.1,300.9 514.1,298.2 517.2,284.2 520.2,258.8 523.3,228.0 526.3,226.3 529.3,219.3 532.4,203.5 535.4,202.6 538.4,209.6 541.5,187.7 544.1,215.8 547.6,200.8 550.6,208.7 553.6,221.0 556.7,216.6 559.7,230.7 562.7,218.4 565.8,209.6 568.8,224.5 571.8,226.3 574.9,233.3 577.9,228.9 581.0,219.3 584.0,201.7 587.0,192.9 590.1,177.1 593.1,170.1 596.1,192.9 599.2,262.3 602.2,266.6 605.3,240.3 608.3,248.2 611.3,238.6 614.4,230.7 617.4,242.1 620.4,252.6 623.5,247.3 626.5,221.0 629.5,198.2 632.6,201.7 635.6,193.8 638.7,184.2 641.7,183.3 644.7,169.2 647.8,163.1 650.8,180.7 653.8,173.6 656.9,169.2 659.9,177.1 663.0,167.5 666.0,164.9 669.0,155.2 672.1,169.2 675.1,159.6 678.1,156.1 681.2,149.1 684.2,155.2 687.3,150.8 690.3,154.3 693.3,151.7 696.4,158.7 699.4,172.8 702.4,154.3 705.5,168.4 708.5,164.9 711.5,196.4 714.6,183.3 717.6,207.0 720.7,218.4 723.7,225.4 726.7,210.5 729.8,233.3 732.8,211.4 735.8,215.8 738.9,214.0 741.9,203.5 745.0,189.4 748.0,186.8 751.0,198.2 754.1,203.5 757.1,182.4 760.1,193.8 762.7,193.8 766.2,181.5 769.3,168.4 772.3,160.5 775.3,161.4 778.4,174.5 781.4,169.2 784.4,172.8 787.5,164.0 790.5,167.5 793.5,169.2 796.6,186.8 799.6,184.2 802.7,183.3 805.7,192.9 808.7,206.1 811.8,202.6 814.8,214.0 817.8,256.1 820.9,241.2 823.9,240.3 827.0,254.4 830.0,253.5 833.0,275.4 836.1,283.3 839.1,285.1 842.1,285.1 845.2,251.7 848.2,250.0 851.3,250.0 854.3,235.9 857.3,227.2 860.4,222.8 863.4,218.4 866.4,213.1 869.5,234.2 872.5,236.8 875.5,223.7 878.6,219.3 881.6,218.4 884.7,221.0 887.7,210.5 890.7,221.9 893.8,221.9 896.8,226.3 899.8,220.1 902.9,222.8 905.9,228.9 909.0,246.5 912.0,246.5 915.0,243.8 918.1,250.9 921.1,255.2 924.1,273.7 927.2,249.1 929.8,262.3 933.3,268.4 936.3,260.5 939.3,256.1 942.4,247.3 945.4,245.6 948.4,255.2 951.5,242.1 954.5,249.1 957.5,254.4 960.6,269.3 963.2,256.1 966.7,254.4 969.7,256.1 972.7,253.5 975.8,272.8 978.8,266.6 981.8,267.5 984.9,273.7 987.9,281.6 991.0,288.6 994.0,284.2 997.0,283.3 1000.1,278.1 1003.1,282.4 1006.1,287.7 1009.2,293.0 1012.2,291.2 1015.2,280.7 1018.3,285.1 1021.3,278.9 1024.4,288.6 1027.4,292.1 1030.4,284.2 1033.5,287.7 1036.5,291.2 1039.5,293.0 1042.6,292.1 1045.6,286.0 1048.7,281.6 1051.7,280.7 1054.7,287.7 1057.8,289.5 1060.8,298.2 1063.8,291.2 1066.9,300.0 1069.9,284.2 1073.0,269.3 1076.0,256.1 1079.0,256.1 1082.1,259.6 1085.1,262.3 1088.1,271.0 1091.2,264.9 1094.2,256.1 1097.2,254.4 1100.3,237.7 1103.3,234.2 1106.4,247.3 1109.4,230.7 1112.0,241.2" fill="none" stroke="#0f766e" stroke-width="2.5" stroke-linejoin="round" stroke-linecap="round"/>
<polyline points="92.0,438.6 95.0,436.0 98.1,435.1 101.1,447.4 104.1,464.1 107.2,457.1 110.2,457.1 113.3,468.5 116.3,497.4 119.3,531.7 122.4,514.1 125.4,515.9 128.4,533.4 131.5,542.2 134.1,532.5 137.6,539.6 140.6,543.9 143.6,540.4 146.7,536.0 149.7,540.4 152.7,538.7 155.8,539.6 158.8,516.7 161.9,534.3 164.9,535.2 167.9,540.4 170.5,536.9 174.0,539.6 177.0,540.4 180.1,544.8 183.1,548.3 186.1,546.6 189.2,534.3 192.2,540.4 195.3,531.7 198.3,533.4 201.3,537.8 204.4,535.2 207.4,538.7 210.4,535.2 213.5,527.3 216.5,529.9 219.6,522.0 222.6,519.4 225.6,523.8 228.7,518.5 231.7,523.8 234.7,522.9 237.8,511.5 240.8,517.6 243.9,513.2 246.5,514.1 249.5,515.0 253.0,497.4 256.0,499.2 259.0,500.1 262.1,499.2 265.1,492.2 268.1,491.3 271.2,479.0 274.2,470.2 277.3,459.7 280.3,452.7 283.3,443.9 286.4,450.0 289.4,445.7 292.4,450.0 295.5,457.1 298.5,457.9 301.6,451.8 304.6,456.2 307.6,453.6 310.7,453.6 313.7,457.9 316.7,459.7 319.8,467.6 322.8,469.4 325.8,461.5 328.9,470.2 331.9,476.4 335.0,481.6 338.0,482.5 341.0,487.8 344.1,481.6 347.1,483.4 350.1,486.0 353.2,481.6 356.2,479.9 359.3,478.1 362.3,476.4 365.3,467.6 368.4,466.7 371.4,455.3 374.4,457.1 377.5,450.9 380.5,460.6 383.6,469.4 386.6,457.9 389.6,461.5 392.7,466.7 395.7,478.1 398.7,466.7 401.8,472.9 404.4,465.0 407.8,463.2 410.9,442.1 413.9,440.4 417.0,443.0 420.0,440.4 423.0,427.2 426.1,428.1 429.1,428.1 432.1,423.7 435.2,443.9 438.2,421.1 441.3,408.8 444.3,379.0 447.3,386.9 450.4,357.9 453.0,348.3 456.4,342.1 459.5,343.0 462.5,322.8 465.6,339.5 468.6,352.6 471.6,356.2 474.7,336.8 477.7,320.2 480.7,311.4 483.8,321.9 486.8,343.9 489.8,325.4 492.9,339.5 495.9,353.5 499.0,362.3 502.0,348.3 505.0,347.4 508.1,335.1 511.1,329.8 514.1,315.8 517.2,304.4 520.2,293.9 523.3,272.8 526.3,260.5 529.3,255.2 532.4,245.6 535.4,227.2 538.4,243.8 541.5,230.7 544.1,261.4 547.6,261.4 550.6,273.7 553.6,288.6 556.7,283.3 559.7,291.2 562.7,267.5 565.8,256.1 568.8,285.1 571.8,290.3 574.9,291.2 577.9,287.7 581.0,286.8 584.0,268.4 587.0,261.4 590.1,250.0 593.1,248.2 596.1,271.9 599.2,299.1 602.2,300.0 605.3,291.2 608.3,299.1 611.3,287.7 614.4,283.3 617.4,294.7 620.4,294.7 623.5,293.0 626.5,271.9 629.5,263.1 632.6,272.8 635.6,267.5 638.7,265.8 641.7,268.4 644.7,262.3 647.8,240.3 650.8,260.5 653.8,259.6 656.9,249.1 659.9,241.2 663.0,231.5 666.0,222.8 669.0,223.7 672.1,229.8 675.1,222.8 678.1,216.6 681.2,207.0 684.2,193.8 687.3,177.1 690.3,190.3 693.3,164.0 696.4,171.9 699.4,195.6 702.4,192.1 705.5,207.0 708.5,204.3 711.5,226.3 714.6,225.4 717.6,253.5 720.7,254.4 723.7,256.1 726.7,241.2 729.8,249.1 732.8,232.4 735.8,232.4 738.9,243.0 741.9,230.7 745.0,219.3 748.0,222.8 751.0,228.9 754.1,237.7 757.1,218.4 760.1,226.3 762.7,228.0 766.2,211.4 769.3,201.7 772.3,191.2 775.3,186.8 778.4,201.7 781.4,201.7 784.4,208.7 787.5,205.2 790.5,200.8 793.5,207.9 796.6,228.0 799.6,223.7 802.7,214.0 805.7,221.0 808.7,229.8 811.8,223.7 814.8,228.0 817.8,263.1 820.9,250.9 823.9,255.2 827.0,262.3 830.0,253.5 833.0,270.2 836.1,275.4 839.1,269.3 842.1,267.5 845.2,247.3 848.2,238.6 851.3,238.6 854.3,223.7 857.3,213.1 860.4,219.3 863.4,207.9 866.4,209.6 869.5,229.8 872.5,232.4 875.5,210.5 878.6,200.0 881.6,191.2 884.7,192.9 887.7,178.0 890.7,192.1 893.8,190.3 896.8,194.7 899.8,202.6 902.9,204.3 905.9,208.7 909.0,224.5 912.0,217.5 915.0,218.4 918.1,223.7 921.1,221.9 924.1,244.7 927.2,203.5 929.8,215.8 933.3,220.1 936.3,216.6 939.3,213.1 942.4,207.9 945.4,200.8 948.4,209.6 951.5,200.8 954.5,209.6 957.5,212.2 960.6,220.1 963.2,214.9 966.7,207.9 969.7,207.0 972.7,210.5 975.8,225.4 978.8,221.9 981.8,216.6 984.9,222.8 987.9,225.4 991.0,236.8 994.0,240.3 997.0,233.3 1000.1,228.0 1003.1,234.2 1006.1,241.2 1009.2,243.8 1012.2,243.8 1015.2,235.9 1018.3,235.9 1021.3,233.3 1024.4,240.3 1027.4,243.8 1030.4,233.3 1033.5,228.9 1036.5,231.5 1039.5,233.3 1042.6,228.9 1045.6,229.8 1048.7,224.5 1051.7,224.5 1054.7,222.8 1057.8,226.3 1060.8,242.1 1063.8,238.6 1066.9,248.2 1069.9,232.4 1073.0,221.0 1076.0,211.4 1079.0,207.0 1082.1,214.9 1085.1,218.4 1088.1,222.8 1091.2,218.4 1094.2,211.4 1097.2,212.2 1100.3,193.8 1103.3,196.4 1106.4,206.1 1109.4,197.3 1112.0,206.1" fill="none" stroke="#2563eb" stroke-width="2.5" stroke-linejoin="round" stroke-linecap="round"/>
<polyline points="92.0,398.3 95.0,396.5 98.1,395.6 101.1,408.8 104.1,422.0 107.2,416.7 110.2,417.6 113.3,429.9 116.3,451.8 119.3,486.9 122.4,459.7 125.4,460.6 128.4,483.4 131.5,487.8 134.1,478.1 137.6,485.1 140.6,493.9 143.6,485.1 146.7,474.6 149.7,480.8 152.7,476.4 155.8,472.9 158.8,449.2 161.9,469.4 164.9,467.6 167.9,476.4 170.5,471.1 174.0,479.9 177.0,479.9 180.1,488.7 183.1,491.3 186.1,488.7 189.2,469.4 192.2,478.1 195.3,463.2 198.3,468.5 201.3,472.0 204.4,469.4 207.4,473.7 210.4,466.7 213.5,457.9 216.5,463.2 219.6,452.7 222.6,451.8 225.6,456.2 228.7,451.8 231.7,462.3 234.7,458.8 237.8,444.8 240.8,453.6 243.9,447.4 246.5,450.9 249.5,451.8 253.0,432.5 256.0,434.3 259.0,434.3 262.1,432.5 265.1,423.7 268.1,420.2 271.2,408.8 274.2,406.2 277.3,396.5 280.3,386.0 283.3,381.6 286.4,388.6 289.4,390.4 292.4,391.3 295.5,398.3 298.5,399.2 301.6,394.8 304.6,396.5 307.6,390.4 310.7,392.1 313.7,398.3 316.7,400.0 319.8,407.9 322.8,420.2 325.8,407.0 328.9,416.7 331.9,422.0 335.0,427.2 338.0,428.1 341.0,430.7 344.1,426.4 347.1,426.4 350.1,432.5 353.2,429.0 356.2,426.4 359.3,426.4 362.3,429.0 365.3,422.0 368.4,417.6 371.4,407.0 374.4,416.7 377.5,414.1 380.5,427.2 383.6,432.5 386.6,425.5 389.6,429.0 392.7,436.0 395.7,448.3 398.7,431.6 401.8,436.9 404.4,429.0 407.8,429.9 410.9,411.4 413.9,410.6 417.0,414.9 420.0,414.9 423.0,400.9 426.1,400.0 429.1,400.0 432.1,395.6 435.2,407.0 438.2,389.5 441.3,384.2 444.3,368.4 447.3,382.5 450.4,354.4 453.0,340.4 456.4,337.7 459.5,336.8 462.5,313.2 465.6,324.6 468.6,334.2 471.6,336.0 474.7,323.7 477.7,315.8 480.7,307.0 483.8,310.5 486.8,323.7 489.8,309.6 492.9,324.6 495.9,333.3 499.0,333.3 502.0,328.1 505.0,322.8 508.1,314.0 511.1,314.9 514.1,302.6 517.2,292.1 520.2,287.7 523.3,279.8 526.3,264.0 529.3,257.9 532.4,246.5 535.4,216.6 538.4,232.4 541.5,221.9 544.1,243.0 547.6,252.6 550.6,268.4 553.6,284.2 556.7,284.2 559.7,286.8 562.7,261.4 565.8,248.2 568.8,274.5 571.8,279.8 574.9,275.4 577.9,277.2 581.0,278.1 584.0,260.5 587.0,256.1 590.1,251.7 593.1,254.4 596.1,271.9 599.2,280.7 602.2,277.2 605.3,274.5 608.3,279.8 611.3,268.4 614.4,264.9 617.4,274.5 620.4,266.6 623.5,264.9 626.5,250.0 629.5,249.1 632.6,256.1 635.6,255.2 638.7,257.9 641.7,261.4 644.7,258.8 647.8,241.2 650.8,251.7 653.8,253.5 656.9,243.0 659.9,227.2 663.0,221.9 666.0,212.2 669.0,219.3 672.1,220.1 675.1,216.6 678.1,208.7 681.2,199.1 684.2,181.5 687.3,162.2 690.3,177.1 693.3,149.9 696.4,155.2 699.4,178.0 702.4,181.5 705.5,193.8 708.5,192.9 711.5,210.5 714.6,218.4 717.6,245.6 720.7,241.2 723.7,243.0 726.7,227.2 729.8,228.0 732.8,214.0 735.8,212.2 738.9,226.3 741.9,213.1 745.0,206.1 748.0,213.1 751.0,216.6 754.1,222.8 757.1,207.9 760.1,211.4 762.7,215.8 766.2,198.2 769.3,192.1 772.3,182.4 775.3,177.1 778.4,187.7 781.4,189.4 784.4,196.4 787.5,195.6 790.5,188.6 793.5,197.3 796.6,215.8 799.6,211.4 802.7,200.8 805.7,204.3 808.7,211.4 811.8,206.1 814.8,206.1 817.8,235.9 820.9,225.4 823.9,232.4 827.0,236.8 830.0,228.0 833.0,243.0 836.1,247.3 839.1,239.4 842.1,236.8 845.2,222.8 848.2,211.4 851.3,212.2 854.3,200.8 857.3,195.6 860.4,204.3 863.4,192.9 866.4,192.9 869.5,214.0 872.5,215.8 875.5,192.1 878.6,182.4 881.6,173.6 884.7,173.6 887.7,161.4 890.7,171.9 893.8,171.0 896.8,172.8 899.8,185.0 902.9,185.0 905.9,186.8 909.0,200.8 912.0,191.2 915.0,191.2 918.1,193.8 921.1,189.4 924.1,209.6 927.2,171.0 929.8,175.4 933.3,180.7 936.3,176.3 939.3,172.8 942.4,167.5 945.4,154.3 948.4,164.9 951.5,160.5 954.5,166.6 957.5,167.5 960.6,171.0 963.2,170.1 966.7,161.4 969.7,157.8 972.7,164.9 975.8,174.5 978.8,171.0 981.8,164.9 984.9,168.4 987.9,164.9 991.0,177.1 994.0,185.9 997.0,179.8 1000.1,178.0 1003.1,183.3 1006.1,190.3 1009.2,192.9 1012.2,193.8 1015.2,186.8 1018.3,184.2 1021.3,180.7 1024.4,183.3 1027.4,186.8 1030.4,176.3 1033.5,171.0 1036.5,173.6 1039.5,174.5 1042.6,170.1 1045.6,173.6 1048.7,172.8 1051.7,173.6 1054.7,169.2 1057.8,171.0 1060.8,185.0 1063.8,182.4 1066.9,189.4 1069.9,178.0 1073.0,166.6 1076.0,161.4 1079.0,159.6 1082.1,165.7 1085.1,165.7 1088.1,168.4 1091.2,165.7 1094.2,160.5 1097.2,162.2 1100.3,147.3 1103.3,151.7 1106.4,158.7 1109.4,157.0 1112.0,162.2" fill="none" stroke="#af4c23" stroke-width="2.5" stroke-linejoin="round" stroke-linecap="round"/>
<text x="20" y="368.0" transform="rotate(-90 20 368.0)" class="label" text-anchor="middle">Yield (%)</text>
<line x1="92" y1="666" x2="120" y2="666" stroke="#0f766e" stroke-width="3"/>
<text x="128" y="670" class="legend">2Y</text>
<line x1="214" y1="666" x2="242" y2="666" stroke="#2563eb" stroke-width="3"/>
<text x="250" y="670" class="legend">10Y</text>
<line x1="336" y1="666" x2="364" y2="666" stroke="#af4c23" stroke-width="3"/>
<text x="372" y="670" class="legend">30Y</text>
<text x="92" y="698" class="note">Source: FRED series DGS2, DGS10, and DGS30.</text>
</svg>